<svg id="mermaid-svg" width="100%" xmlns="http://www.w3.org/2000/svg" class="flowchart" style="max-width: 959.7820434570312px;" viewBox="0 0 959.7820434570312 1380.589111328125" role="graphics-document document" aria-roledescription="flowchart-v2" xmlns:xlink="http://www.w3.org/1999/xlink"><style xmlns="http://www.w3.org/1999/xhtml">@import url("https://cdnjs.cloudflare.com/ajax/libs/font-awesome/6.7.2/css/all.min.css");</style><style>#mermaid-svg{font-family:"trebuchet ms",verdana,arial,sans-serif;font-size:16px;fill:#333;}@keyframes edge-animation-frame{from{stroke-dashoffset:0;}}@keyframes dash{to{stroke-dashoffset:0;}}#mermaid-svg .edge-animation-slow{stroke-dasharray:9,5!important;stroke-dashoffset:900;animation:dash 50s linear infinite;stroke-linecap:round;}#mermaid-svg .edge-animation-fast{stroke-dasharray:9,5!important;stroke-dashoffset:900;animation:dash 20s linear infinite;stroke-linecap:round;}#mermaid-svg .error-icon{fill:#552222;}#mermaid-svg .error-text{fill:#552222;stroke:#552222;}#mermaid-svg .edge-thickness-normal{stroke-width:1px;}#mermaid-svg .edge-thickness-thick{stroke-width:3.5px;}#mermaid-svg .edge-pattern-solid{stroke-dasharray:0;}#mermaid-svg .edge-thickness-invisible{stroke-width:0;fill:none;}#mermaid-svg .edge-pattern-dashed{stroke-dasharray:3;}#mermaid-svg .edge-pattern-dotted{stroke-dasharray:2;}#mermaid-svg .marker{fill:#333333;stroke:#333333;}#mermaid-svg .marker.cross{stroke:#333333;}#mermaid-svg svg{font-family:"trebuchet ms",verdana,arial,sans-serif;font-size:16px;}#mermaid-svg p{margin:0;}#mermaid-svg .label{font-family:"trebuchet ms",verdana,arial,sans-serif;color:#333;}#mermaid-svg .cluster-label text{fill:#333;}#mermaid-svg .cluster-label span{color:#333;}#mermaid-svg .cluster-label span p{background-color:transparent;}#mermaid-svg .label text,#mermaid-svg span{fill:#333;color:#333;}#mermaid-svg .node rect,#mermaid-svg .node circle,#mermaid-svg .node ellipse,#mermaid-svg .node polygon,#mermaid-svg .node path{fill:#ECECFF;stroke:#9370DB;stroke-width:1px;}#mermaid-svg .rough-node .label text,#mermaid-svg .node .label text,#mermaid-svg .image-shape .label,#mermaid-svg .icon-shape .label{text-anchor:middle;}#mermaid-svg .node .katex path{fill:#000;stroke:#000;stroke-width:1px;}#mermaid-svg .rough-node .label,#mermaid-svg .node .label,#mermaid-svg .image-shape .label,#mermaid-svg .icon-shape .label{text-align:center;}#mermaid-svg .node.clickable{cursor:pointer;}#mermaid-svg .root .anchor path{fill:#333333!important;stroke-width:0;stroke:#333333;}#mermaid-svg .arrowheadPath{fill:#333333;}#mermaid-svg .edgePath .path{stroke:#333333;stroke-width:2.0px;}#mermaid-svg .flowchart-link{stroke:#333333;fill:none;}#mermaid-svg .edgeLabel{background-color:rgba(232,232,232, 0.8);text-align:center;}#mermaid-svg .edgeLabel p{background-color:rgba(232,232,232, 0.8);}#mermaid-svg .edgeLabel rect{opacity:0.5;background-color:rgba(232,232,232, 0.8);fill:rgba(232,232,232, 0.8);}#mermaid-svg .labelBkg{background-color:rgba(232, 232, 232, 0.5);}#mermaid-svg .cluster rect{fill:#ffffde;stroke:#aaaa33;stroke-width:1px;}#mermaid-svg .cluster text{fill:#333;}#mermaid-svg .cluster span{color:#333;}#mermaid-svg div.mermaidTooltip{position:absolute;text-align:center;max-width:200px;padding:2px;font-family:"trebuchet ms",verdana,arial,sans-serif;font-size:12px;background:hsl(80, 100%, 96.2745098039%);border:1px solid #aaaa33;border-radius:2px;pointer-events:none;z-index:100;}#mermaid-svg .flowchartTitleText{text-anchor:middle;font-size:18px;fill:#333;}#mermaid-svg rect.text{fill:none;stroke-width:0;}#mermaid-svg .icon-shape,#mermaid-svg .image-shape{background-color:rgba(232,232,232, 0.8);text-align:center;}#mermaid-svg .icon-shape p,#mermaid-svg .image-shape p{background-color:rgba(232,232,232, 0.8);padding:2px;}#mermaid-svg .icon-shape rect,#mermaid-svg .image-shape rect{opacity:0.5;background-color:rgba(232,232,232, 0.8);fill:rgba(232,232,232, 0.8);}#mermaid-svg .label-icon{display:inline-block;height:1em;overflow:visible;vertical-align:-0.125em;}#mermaid-svg .node .label-icon path{fill:currentColor;stroke:revert;stroke-width:revert;}#mermaid-svg :root{--mermaid-font-family:"trebuchet ms",verdana,arial,sans-serif;}</style><g><marker id="mermaid-svg_flowchart-v2-pointEnd" class="marker flowchart-v2" viewBox="0 0 10 10" refX="5" refY="5" markerUnits="userSpaceOnUse" markerWidth="8" markerHeight="8" orient="auto"><path d="M 0 0 L 10 5 L 0 10 z" class="arrowMarkerPath" style="stroke-width: 1; stroke-dasharray: 1, 0;"/></marker><marker id="mermaid-svg_flowchart-v2-pointStart" class="marker flowchart-v2" viewBox="0 0 10 10" refX="4.5" refY="5" markerUnits="userSpaceOnUse" markerWidth="8" markerHeight="8" orient="auto"><path d="M 0 5 L 10 10 L 10 0 z" class="arrowMarkerPath" style="stroke-width: 1; stroke-dasharray: 1, 0;"/></marker><marker id="mermaid-svg_flowchart-v2-circleEnd" class="marker flowchart-v2" viewBox="0 0 10 10" refX="11" refY="5" markerUnits="userSpaceOnUse" markerWidth="11" markerHeight="11" orient="auto"><circle cx="5" cy="5" r="5" class="arrowMarkerPath" style="stroke-width: 1; stroke-dasharray: 1, 0;"/></marker><marker id="mermaid-svg_flowchart-v2-circleStart" class="marker flowchart-v2" viewBox="0 0 10 10" refX="-1" refY="5" markerUnits="userSpaceOnUse" markerWidth="11" markerHeight="11" orient="auto"><circle cx="5" cy="5" r="5" class="arrowMarkerPath" style="stroke-width: 1; stroke-dasharray: 1, 0;"/></marker><marker id="mermaid-svg_flowchart-v2-crossEnd" class="marker cross flowchart-v2" viewBox="0 0 11 11" refX="12" refY="5.2" markerUnits="userSpaceOnUse" markerWidth="11" markerHeight="11" orient="auto"><path d="M 1,1 l 9,9 M 10,1 l -9,9" class="arrowMarkerPath" style="stroke-width: 2; stroke-dasharray: 1, 0;"/></marker><marker id="mermaid-svg_flowchart-v2-crossStart" class="marker cross flowchart-v2" viewBox="0 0 11 11" refX="-1" refY="5.2" markerUnits="userSpaceOnUse" markerWidth="11" markerHeight="11" orient="auto"><path d="M 1,1 l 9,9 M 10,1 l -9,9" class="arrowMarkerPath" style="stroke-width: 2; stroke-dasharray: 1, 0;"/></marker><g class="root"><g class="clusters"/><g class="edgePaths"><path d="M682.54,40.5L682.457,44.583C682.373,48.667,682.207,56.833,682.123,64.417C682.04,72,682.04,79,682.04,82.5L682.04,86" id="L_A_B_0" class=" edge-thickness-normal edge-pattern-solid edge-thickness-normal edge-pattern-solid flowchart-link" style=";" data-edge="true" data-et="edge" data-id="L_A_B_0" data-points="W3sieCI6NjgyLjUzOTg0NTI3NjYyNCwieSI6NDAuNX0seyJ4Ijo2ODIuMDM5ODQ1Mjc2NjI0LCJ5Ijo2NX0seyJ4Ijo2ODIuMDM5ODQ1Mjc2NjI0LCJ5Ijo5MH1d" marker-end="url(#mermaid-svg_flowchart-v2-pointEnd)"/><path d="M682.04,154.6L682.04,158.767C682.04,162.933,682.04,171.267,682.04,178.933C682.04,186.6,682.04,193.6,682.04,197.1L682.04,200.6" id="L_B_C_0" class=" edge-thickness-normal edge-pattern-solid edge-thickness-normal edge-pattern-solid flowchart-link" style=";" data-edge="true" data-et="edge" data-id="L_B_C_0" data-points="W3sieCI6NjgyLjAzOTg0NTI3NjYyNCwieSI6MTU0LjU5OTk5ODQ3NDEyMTF9LHsieCI6NjgyLjAzOTg0NTI3NjYyNCwieSI6MTc5LjU5OTk5ODQ3NDEyMTF9LHsieCI6NjgyLjAzOTg0NTI3NjYyNCwieSI6MjA0LjU5OTk5ODQ3NDEyMTF9XQ==" marker-end="url(#mermaid-svg_flowchart-v2-pointEnd)"/><path d="M682.04,251.6L682.04,255.767C682.04,259.933,682.04,268.267,682.04,275.933C682.04,283.6,682.04,290.6,682.04,294.1L682.04,297.6" id="L_C_D_0" class=" edge-thickness-normal edge-pattern-solid edge-thickness-normal edge-pattern-solid flowchart-link" style=";" data-edge="true" data-et="edge" data-id="L_C_D_0" data-points="W3sieCI6NjgyLjAzOTg0NTI3NjYyNCwieSI6MjUxLjU5OTk5ODQ3NDEyMTF9LHsieCI6NjgyLjAzOTg0NTI3NjYyNCwieSI6Mjc2LjU5OTk5ODQ3NDEyMTF9LHsieCI6NjgyLjAzOTg0NTI3NjYyNCwieSI6MzAxLjU5OTk5ODQ3NDEyMTF9XQ==" marker-end="url(#mermaid-svg_flowchart-v2-pointEnd)"/><path d="M682.04,383.8L682.04,387.967C682.04,392.133,682.04,400.467,682.04,412.708C682.04,424.95,682.04,441.1,682.04,449.175L682.04,457.25" id="D-cyclic-special-1" class=" edge-thickness-normal edge-pattern-solid edge-thickness-normal edge-pattern-solid flowchart-link" style=";" data-edge="true" data-et="edge" data-id="D-cyclic-special-1" data-points="W3sieCI6NjgyLjAzOTg0NTI3NjYyNCwieSI6MzgzLjc5OTk5NTQyMjM2MzN9LHsieCI6NjgyLjAzOTg0NTI3NjYyNCwieSI6NDA4Ljc5OTk5NTQyMjM2MzN9LHsieCI6NjgyLjAzOTg0NTI3NjYyNCwieSI6NDU3LjI0OTk5NTQyMTYxODJ9XQ=="/><path d="M682.04,457.35L682.04,468.642C682.04,479.933,682.04,502.517,692.113,526.567C702.186,550.617,722.331,576.133,732.404,588.892L742.477,601.65" id="D-cyclic-special-mid" class=" edge-thickness-normal edge-pattern-solid edge-thickness-normal edge-pattern-solid flowchart-link" style=";" data-edge="true" data-et="edge" data-id="D-cyclic-special-mid" data-points="W3sieCI6NjgyLjAzOTg0NTI3NjYyNCwieSI6NDU3LjM0OTk5NTQyMzEwODM0fSx7IngiOjY4Mi4wMzk4NDUyNzY2MjQsInkiOjUyNS4wOTk5OTQ2NTk0MjM4fSx7IngiOjc0Mi40NzY5MzIyMTIyNTk4LCJ5Ijo2MDEuNjQ5OTkzMTMyNzk5OX1d"/><path d="M742.556,601.65L752.629,588.892C762.702,576.133,782.847,550.617,792.92,526.558C802.993,502.5,802.993,479.9,802.993,460.517C802.993,441.133,802.993,424.967,795.954,413.036C788.914,401.106,774.835,393.412,767.796,389.565L760.757,385.718" id="D-cyclic-special-2" class=" edge-thickness-normal edge-pattern-solid edge-thickness-normal edge-pattern-solid flowchart-link" style=";" data-edge="true" data-et="edge" data-id="D-cyclic-special-2" data-points="W3sieCI6NzQyLjU1NTg4MzM0MDk4ODEsInkiOjYwMS42NDk5OTMxMzI3OTk5fSx7IngiOjgwMi45OTI5NzAyNzY2MjQsInkiOjUyNS4wOTk5OTQ2NTk0MjM4fSx7IngiOjgwMi45OTI5NzAyNzY2MjQsInkiOjQ1Ny4yOTk5OTU0MjIzNjMzfSx7IngiOjgwMi45OTI5NzAyNzY2MjQsInkiOjQwOC43OTk5OTU0MjIzNjMzfSx7IngiOjc1Ny4yNDY3MDQwOTIwMDU4LCJ5IjozODMuNzk5OTk1NDIyMzYzM31d" marker-end="url(#mermaid-svg_flowchart-v2-pointEnd)"/><path d="M589.771,383.8L580.417,387.967C571.063,392.133,552.354,400.467,543,408.133C533.646,415.8,533.646,422.8,533.646,426.3L533.646,429.8" id="L_D_F_0" class=" edge-thickness-normal edge-pattern-solid edge-thickness-normal edge-pattern-solid flowchart-link" style=";" data-edge="true" data-et="edge" data-id="L_D_F_0" data-points="W3sieCI6NTg5Ljc3MDgxMjkxMDY0NjcsInkiOjM4My43OTk5OTU0MjIzNjMzfSx7IngiOjUzMy42NDYwOTUyNzU4Nzg5LCJ5Ijo0MDguNzk5OTk1NDIyMzYzM30seyJ4Ijo1MzMuNjQ2MDk1Mjc1ODc4OSwieSI6NDMzLjc5OTk5NTQyMjM2MzN9XQ==" marker-end="url(#mermaid-svg_flowchart-v2-pointEnd)"/><path d="M533.646,480.8L533.646,488.183C533.646,495.567,533.646,510.333,533.646,524.433C533.646,538.533,533.646,551.967,533.646,558.683L533.646,565.4" id="L_F_G_0" class=" edge-thickness-normal edge-pattern-solid edge-thickness-normal edge-pattern-solid flowchart-link" style=";" data-edge="true" data-et="edge" data-id="L_F_G_0" data-points="W3sieCI6NTMzLjY0NjA5NTI3NTg3ODksInkiOjQ4MC43OTk5OTU0MjIzNjMzfSx7IngiOjUzMy42NDYwOTUyNzU4Nzg5LCJ5Ijo1MjUuMDk5OTk0NjU5NDIzOH0seyJ4Ijo1MzMuNjQ2MDk1Mjc1ODc4OSwieSI6NTY5LjM5OTk5Mzg5NjQ4NDR9XQ==" marker-end="url(#mermaid-svg_flowchart-v2-pointEnd)"/><path d="M411.17,633.141L387.563,639.2C363.957,645.26,316.744,657.38,293.138,685.57C269.531,713.759,269.531,758.018,269.531,780.147L269.531,802.277" id="L_G_I_0" class=" edge-thickness-normal edge-pattern-solid edge-thickness-normal edge-pattern-solid flowchart-link" style=";" data-edge="true" data-et="edge" data-id="L_G_I_0" data-points="W3sieCI6NDExLjE2OTUzMjc3NTg3ODksInkiOjYzMy4xNDA1MjM2MTcxMDc5fSx7IngiOjI2OS41MzEyNSwieSI6NjY5LjQ5OTk5MjM3MDYwNTV9LHsieCI6MjY5LjUzMTI1LCJ5Ijo4MDYuMjc2NTYxNzM3MDYwNX1d" marker-end="url(#mermaid-svg_flowchart-v2-pointEnd)"/><path d="M269.531,870.877L269.531,893.673C269.531,916.469,269.531,962.061,269.531,990.107C269.531,1018.153,269.531,1028.653,269.531,1033.903L269.531,1039.153" id="L_I_J_0" class=" edge-thickness-normal edge-pattern-solid edge-thickness-normal edge-pattern-solid flowchart-link" style=";" data-edge="true" data-et="edge" data-id="L_I_J_0" data-points="W3sieCI6MjY5LjUzMTI1LCJ5Ijo4NzAuODc2NTYwMjExMTgxNn0seyJ4IjoyNjkuNTMxMjUsInkiOjEwMDcuNjUzMTI5NTc3NjM2N30seyJ4IjoyNjkuNTMxMjUsInkiOjEwNDMuMTUzMTI5NTc3NjM2N31d" marker-end="url(#mermaid-svg_flowchart-v2-pointEnd)"/><path d="M216.396,1201.454L201.469,1216.227C186.542,1230.999,156.687,1260.544,141.759,1280.567C126.832,1300.589,126.832,1311.089,126.832,1316.339L126.832,1321.589" id="L_J_K_0" class=" edge-thickness-normal edge-pattern-solid edge-thickness-normal edge-pattern-solid flowchart-link" style=";" data-edge="true" data-et="edge" data-id="L_J_K_0" data-points="W3sieCI6MjE2LjM5NjQ4OTI4MTExNjIzLCJ5IjoxMjAxLjQ1NDMxMjQ2MjI2ODd9LHsieCI6MTI2LjgzMjAzMTI1LCJ5IjoxMjkwLjA4OTA3MzE4MTE1MjN9LHsieCI6MTI2LjgzMjAzMTI1LCJ5IjoxMzI1LjU4OTA3MzE4MTE1MjN9XQ==" marker-end="url(#mermaid-svg_flowchart-v2-pointEnd)"/><path d="M322.666,1201.454L337.593,1216.227C352.521,1230.999,382.376,1260.544,397.303,1280.567C412.23,1300.589,412.23,1311.089,412.23,1316.339L412.23,1321.589" id="L_J_L_0" class=" edge-thickness-normal edge-pattern-solid edge-thickness-normal edge-pattern-solid flowchart-link" style=";" data-edge="true" data-et="edge" data-id="L_J_L_0" data-points="W3sieCI6MzIyLjY2NjAxMDcxODg4Mzc0LCJ5IjoxMjAxLjQ1NDMxMjQ2MjI2ODd9LHsieCI6NDEyLjIzMDQ2ODc1LCJ5IjoxMjkwLjA4OTA3MzE4MTE1MjN9LHsieCI6NDEyLjIzMDQ2ODc1LCJ5IjoxMzI1LjU4OTA3MzE4MTE1MjN9XQ==" marker-end="url(#mermaid-svg_flowchart-v2-pointEnd)"/><path d="M606.773,634L620.169,639.917C633.564,645.833,660.355,657.667,673.75,668.833C687.145,680,687.145,690.5,687.145,695.75L687.145,701" id="L_G_M_0" class=" edge-thickness-normal edge-pattern-solid edge-thickness-normal edge-pattern-solid flowchart-link" style=";" data-edge="true" data-et="edge" data-id="L_G_M_0" data-points="W3sieCI6NjA2Ljc3MzMwNDc1Nzg1MjMsInkiOjYzMy45OTk5OTIzNzA2MDU1fSx7IngiOjY4Ny4xNDUzMTcwNzc2MzY3LCJ5Ijo2NjkuNDk5OTkyMzcwNjA1NX0seyJ4Ijo2ODcuMTQ1MzE3MDc3NjM2NCwieSI6NzA0Ljk5OTk5MjM3MDYwNTR9XQ==" marker-end="url(#mermaid-svg_flowchart-v2-pointEnd)"/><path d="M627.253,912.261L614.33,928.159C601.407,944.058,575.561,975.856,562.639,1009.241C549.716,1042.626,549.716,1077.598,549.716,1095.085L549.716,1112.571" id="L_M_P_0" class=" edge-thickness-normal edge-pattern-solid edge-thickness-normal edge-pattern-solid flowchart-link" style=";" data-edge="true" data-et="edge" data-id="L_M_P_0" data-points="W3sieCI6NjI3LjI1Mjk0NzEzNDI4NDgsInkiOjkxMi4yNjA3NTk2MzQyODQ5fSx7IngiOjU0OS43MTU2Mjk1Nzc2MzY3LCJ5IjoxMDA3LjY1MzEyOTU3NzYzNjd9LHsieCI6NTQ5LjcxNTYyOTU3NzYzNjcsInkiOjExMTYuNTcxMTAyMTQyMzM0fV0=" marker-end="url(#mermaid-svg_flowchart-v2-pointEnd)"/><path d="M747.038,912.261L759.961,928.159C772.883,944.058,798.729,975.856,811.652,1006.307C824.575,1036.759,824.575,1065.865,824.575,1080.418L824.575,1094.971" id="L_M_N_0" class=" edge-thickness-normal edge-pattern-solid edge-thickness-normal edge-pattern-solid flowchart-link" style=";" data-edge="true" data-et="edge" data-id="L_M_N_0" data-points="W3sieCI6NzQ3LjAzNzY4NzAyMDk4ODQsInkiOjkxMi4yNjA3NTk2MzQyODV9LHsieCI6ODI0LjU3NTAwNDU3NzYzNjcsInkiOjEwMDcuNjUzMTI5NTc3NjM2N30seyJ4Ijo4MjQuNTc1MDA0NTc3NjM2NywieSI6MTA5OC45NzEwOTk4NTM1MTU2fV0=" marker-end="url(#mermaid-svg_flowchart-v2-pointEnd)"/></g><g class="edgeLabels"><g><rect class="background" style="stroke: none"/></g><g><rect class="background" style="stroke: none"/></g><g><rect class="background" style="stroke: none"/></g><g><rect class="background" style="stroke: none"/></g><g><rect class="background" style="stroke: none"/></g><g><rect class="background" style="stroke: none"/></g><g><rect class="background" style="stroke: none"/></g><g><rect class="background" style="stroke: none"/></g><g class="edgeLabel"><g class="label" data-id="L_A_B_0" transform="translate(0, 0)"><text y="-10.1"><tspan class="text-outer-tspan" x="0" y="-0.1em" dy="1.1em"/></text></g></g><g class="edgeLabel"><g class="label" data-id="L_B_C_0" transform="translate(0, 0)"><text y="-10.1"><tspan class="text-outer-tspan" x="0" y="-0.1em" dy="1.1em"/></text></g></g><g class="edgeLabel"><g class="label" data-id="L_C_D_0" transform="translate(0, 0)"><text y="-10.1"><tspan class="text-outer-tspan" x="0" y="-0.1em" dy="1.1em"/></text></g></g><g class="edgeLabel"><g class="label" data-id="D-cyclic-special-1" transform="translate(0, 0)"><text y="-10.1"><tspan class="text-outer-tspan" x="0" y="-0.1em" dy="1.1em"/></text></g></g><g class="edgeLabel" transform="translate(682.039845276624, 525.0999946594238)"><g class="label" data-id="D-cyclic-special-mid" transform="translate(-100.953125, -19.299999237060547)"><g><rect class="background" style="" x="-2" y="0" width="201.90625" height="38.599998474121094"/><text y="-10.1" style=""><tspan class="text-outer-tspan" x="0" y="-0.1em" dy="1.1em"><tspan font-style="normal" class="text-inner-tspan" font-weight="normal">Nouveau</tspan><tspan font-style="normal" class="text-inner-tspan" font-weight="normal"> membre</tspan><tspan font-style="normal" class="text-inner-tspan" font-weight="normal"> détecté</tspan><tspan font-style="normal" class="text-inner-tspan" font-weight="normal"> =</tspan></tspan><tspan class="text-outer-tspan" x="0" y="1em" dy="1.1em"><tspan font-style="normal" class="text-inner-tspan" font-weight="normal">reset</tspan><tspan font-style="normal" class="text-inner-tspan" font-weight="normal"> du</tspan><tspan font-style="normal" class="text-inner-tspan" font-weight="normal"> timer</tspan></tspan></text></g></g></g><g class="edgeLabel"><g class="label" data-id="D-cyclic-special-2" transform="translate(0, 0)"><text y="-10.1"><tspan class="text-outer-tspan" x="0" y="-0.1em" dy="1.1em"/></text></g></g><g class="edgeLabel"><g class="label" data-id="L_D_F_0" transform="translate(0, 0)"><text y="-10.1"><tspan class="text-outer-tspan" x="0" y="-0.1em" dy="1.1em"/></text></g></g><g class="edgeLabel"><g class="label" data-id="L_F_G_0" transform="translate(0, 0)"><text y="-10.1"><tspan class="text-outer-tspan" x="0" y="-0.1em" dy="1.1em"/></text></g></g><g class="edgeLabel" transform="translate(269.53125, 669.4999923706055)"><g class="label" data-id="L_G_I_0" transform="translate(-72.53125, -10.5)"><g><rect class="background" style="" x="-2" y="0" width="145.0625" height="21"/><text y="-10.1" style=""><tspan class="text-outer-tspan" x="0" y="-0.1em" dy="1.1em"><tspan font-style="normal" class="text-inner-tspan" font-weight="normal">Oui:</tspan><tspan font-style="normal" class="text-inner-tspan" font-weight="normal"> cluster</tspan><tspan font-style="normal" class="text-inner-tspan" font-weight="normal"> existant</tspan></tspan></text></g></g></g><g class="edgeLabel"><g class="label" data-id="L_I_J_0" transform="translate(0, 0)"><text y="-10.1"><tspan class="text-outer-tspan" x="0" y="-0.1em" dy="1.1em"/></text></g></g><g class="edgeLabel" transform="translate(126.83203125, 1290.0890731811523)"><g class="label" data-id="L_J_K_0" transform="translate(-14.453125, -10.5)"><g><rect class="background" style="" x="-2" y="0" width="28.90625" height="21"/><text y="-10.1" style=""><tspan class="text-outer-tspan" x="0" y="-0.1em" dy="1.1em"><tspan font-style="normal" class="text-inner-tspan" font-weight="normal">Oui</tspan></tspan></text></g></g></g><g class="edgeLabel" transform="translate(412.23046875, 1290.0890731811523)"><g class="label" data-id="L_J_L_0" transform="translate(-16.6796875, -10.5)"><g><rect class="background" style="" x="-2" y="0" width="33.359375" height="21"/><text y="-10.1" style=""><tspan class="text-outer-tspan" x="0" y="-0.1em" dy="1.1em"><tspan font-style="normal" class="text-inner-tspan" font-weight="normal">Non</tspan></tspan></text></g></g></g><g class="edgeLabel" transform="translate(687.1453170776367, 669.4999923706055)"><g class="label" data-id="L_G_M_0" transform="translate(-69.04296875, -10.5)"><g><rect class="background" style="" x="-2" y="0" width="138.0859375" height="21"/><text y="-10.1" style=""><tspan class="text-outer-tspan" x="0" y="-0.1em" dy="1.1em"><tspan font-style="normal" class="text-inner-tspan" font-weight="normal">Non:</tspan><tspan font-style="normal" class="text-inner-tspan" font-weight="normal"> aucun</tspan><tspan font-style="normal" class="text-inner-tspan" font-weight="normal"> cluster</tspan></tspan></text></g></g></g><g class="edgeLabel" transform="translate(549.7156295776367, 1007.6531295776367)"><g class="label" data-id="L_M_P_0" transform="translate(-14.453125, -10.5)"><g><rect class="background" style="" x="-2" y="0" width="28.90625" height="21"/><text y="-10.1" style=""><tspan class="text-outer-tspan" x="0" y="-0.1em" dy="1.1em"><tspan font-style="normal" class="text-inner-tspan" font-weight="normal">Oui</tspan></tspan></text></g></g></g><g class="edgeLabel" transform="translate(824.5750045776367, 1007.6531295776367)"><g class="label" data-id="L_M_N_0" transform="translate(-16.6796875, -10.5)"><g><rect class="background" style="" x="-2" y="0" width="33.359375" height="21"/><text y="-10.1" style=""><tspan class="text-outer-tspan" x="0" y="-0.1em" dy="1.1em"><tspan font-style="normal" class="text-inner-tspan" font-weight="normal">Non</tspan></tspan></text></g></g></g></g><g class="nodes"><g class="node default  " id="flowchart-A-0" transform="translate(682.039845276624, 24)"><g class="basic label-container outer-path"><path d="M-49.7890625 -16 C-22.99221645958358 -16, 3.804629580832838 -16, 49.7890625 -16 C49.7890625 -16, 49.7890625 -16, 49.7890625 -16 C50.183445530964576 -15.987352903816967, 50.57782856192915 -15.974705807633935, 50.814186019691405 -15.967126284005381 C51.13100080494634 -15.936563542697362, 51.44781559020128 -15.906000801389345, 51.835097086952096 -15.868640221171939 C52.10012061680057 -15.825793272154208, 52.365144146649044 -15.782946323136477, 52.84760055922195 -15.704946511857047 C53.176045495774424 -15.629981098392458, 53.504490432326904 -15.555015684927868, 53.84753584255211 -15.476717808624471 C54.18867475120894 -15.375469571209797, 54.52981365986577 -15.274221333795122, 54.830793988377934 -15.184891952170698 C55.03614087227517 -15.10932240069073, 55.241487756172404 -15.03375284921076, 55.79333457806999 -14.830668117536348 C56.04568009952866 -14.718962240750525, 56.29802562098733 -14.607256363964702, 56.73120232588093 -14.415501886438706 C56.99824210054707 -14.27618740704252, 57.265281875213205 -14.136872927646335, 57.640543332063004 -13.941099265974232 C57.96700382395969 -13.74319699729166, 58.29346431585638 -13.545294728609086, 58.51762091936878 -13.409409678269451 C58.77379169501787 -13.230716034630792, 59.02996247066696 -13.052022390992134, 59.358830987859456 -12.822617949887306 C59.53216536856398 -12.684388393897034, 59.705499749268505 -12.546158837906765, 60.16071682492461 -12.183135333906153 C60.36319025101051 -11.999254325488238, 60.565663677096396 -11.815373317070321, 60.919983309655784 -11.493589601563642 C61.06476242858682 -11.344093274680626, 61.20954154751785 -11.19459694779761, 61.63351045320505 -10.756814244181072 C61.8568586711156 -10.494456718549712, 62.08020688902615 -10.232099192918351, 62.29836621948848 -9.975836829739738 C62.45026827348272 -9.772301915949257, 62.60217032747696 -9.568767002158776, 62.91181857355129 -9.153866561954718 C63.09014546404362 -8.87990857068352, 63.26847235453595 -8.605950579412323, 63.471346708085534 -8.294281092968403 C63.600914174742734 -8.064220935789846, 63.73048164139994 -7.834160778611291, 63.974651401968 -7.400612643853364 C64.0984920752654 -7.143454835985399, 64.22233274856279 -6.8862970281174345, 64.419664468253 -6.476533489958305 C64.50459101690412 -6.266763272846939, 64.58951756555523 -6.056993055735572, 64.80455725279616 -5.52584087074093 C64.87632530139547 -5.309686943045497, 64.94809334999478 -5.093533015350064, 65.12774814858656 -4.552441386096524 C65.23001967818745 -4.162435718967028, 65.33229120778834 -3.772430051837532, 65.38790909490918 -3.560334943301032 C65.43379989979206 -3.3246953592524555, 65.47969070467495 -3.089055775203879, 65.5839710346312 -2.5535983205340735 C65.6128278929269 -2.3297902260238574, 65.6416847512226 -2.1059821315136418, 65.71512830718717 -1.536368414522911 C65.73773143525985 -1.1843064498744493, 65.7603345633325 -0.8322444852259875, 65.780841959211 -0.5128252411464826 C65.780841959211 -0.26410364695811994, 65.780841959211 -0.015382052769757237, 65.780841959211 0.5128252411464788 C65.75805200513176 0.867797171650587, 65.73526205105252 1.2227691021546951, 65.71512830718717 1.5363684145229002 C65.67217719977934 1.8694887219225178, 65.62922609237152 2.202609029322135, 65.5839710346312 2.5535983205340624 C65.51507477695668 2.907366042463535, 65.44617851928216 3.261133764393007, 65.38790909490918 3.5603349433010285 C65.3052385313412 3.875593631834597, 65.22256796777324 4.190852320368165, 65.12774814858658 4.552441386096513 C65.05902023156752 4.7594389218514195, 64.99029231454846 4.966436457606326, 64.80455725279617 5.525840870740919 C64.68497870789344 5.82120218854456, 64.5654001629907 6.116563506348201, 64.419664468253 6.4765334899583005 C64.31319971338473 6.697609831423104, 64.20673495851645 6.918686172887906, 63.974651401968 7.400612643853361 C63.81350604198453 7.686742548241148, 63.65236068200106 7.972872452628935, 63.47134670808554 8.294281092968399 C63.29094988435668 8.571419057545816, 63.11055306062781 8.848557022123233, 62.9118185735513 9.15386656195471 C62.66765846783555 9.481018860170591, 62.4234983621198 9.808171158386475, 62.29836621948848 9.975836829739734 C62.05618063195982 10.26032180160122, 61.81399504443116 10.544806773462705, 61.633510453205055 10.756814244181063 C61.36178729766894 11.037390711158059, 61.090064142132825 11.317967178135055, 60.919983309655784 11.493589601563638 C60.69659690847476 11.696463220635954, 60.473210507293736 11.89933683970827, 60.16071682492463 12.183135333906142 C59.99709351600465 12.313620568570713, 59.833470207084666 12.444105803235281, 59.35883098785946 12.822617949887304 C59.18043224573843 12.94706118963386, 59.0020335036174 13.071504429380415, 58.51762091936879 13.409409678269446 C58.20098464255972 13.60135645003241, 57.88434836575064 13.793303221795375, 57.640543332063004 13.94109926597423 C57.32355770292461 14.106470465656745, 57.00657207378622 14.271841665339258, 56.73120232588093 14.415501886438705 C56.41507036407613 14.555444128208235, 56.09893840227133 14.695386369977763, 55.793334578069995 14.830668117536346 C55.510869252777795 14.93461796832472, 55.228403927485594 15.038567819113092, 54.83079398837794 15.184891952170695 C54.50488849709366 15.281618991271037, 54.17898300580938 15.378346030371379, 53.84753584255213 15.476717808624468 C53.48186393465334 15.560180035370163, 53.11619202675455 15.643642262115858, 52.84760055922196 15.704946511857045 C52.468508731414246 15.766235138675965, 52.08941690360653 15.827523765494883, 51.8350970869521 15.868640221171937 C51.556190362828 15.895546017413778, 51.27728363870389 15.922451813655618, 50.814186019691405 15.967126284005381 C50.54917839022142 15.975624562876424, 50.28417076075144 15.98412284174747, 49.7890625 16 C49.7890625 16, 49.7890625 16, 49.7890625 16 C16.50160062975332 16, -16.78586124049336 16, -49.7890625 16 C-50.160418885634485 15.988091323514057, -50.53177527126897 15.976182647028114, -50.8141860196914 15.967126284005381 C-51.02525209967274 15.94676499311368, -51.23631817965409 15.92640370222198, -51.835097086952096 15.868640221171937 C-52.1198270995159 15.822607280854847, -52.40455711207971 15.776574340537756, -52.84760055922196 15.704946511857045 C-53.16244844711408 15.633084536020148, -53.477296335006194 15.56122256018325, -53.84753584255211 15.476717808624471 C-54.12482973531099 15.394418436798983, -54.402123628069866 15.312119064973494, -54.83079398837792 15.184891952170702 C-55.116743805086294 15.07965977633089, -55.402693621794675 14.974427600491078, -55.79333457806999 14.830668117536348 C-56.09900293865267 14.695357801636149, -56.40467129923535 14.56004748573595, -56.73120232588093 14.415501886438708 C-57.07032577417365 14.238581400683334, -57.409449222466364 14.061660914927957, -57.640543332063 13.941099265974234 C-57.98365206871431 13.73310473348546, -58.32676080536563 13.525110200996686, -58.51762091936877 13.409409678269457 C-58.72618195330077 13.26392652946014, -58.93474298723277 13.118443380650822, -59.358830987859456 12.822617949887308 C-59.51949205578464 12.694495023587544, -59.68015312370983 12.56637209728778, -60.16071682492461 12.183135333906154 C-60.45481281161033 11.916045140151585, -60.74890879829605 11.648954946397017, -60.91998330965578 11.493589601563649 C-61.13459258515625 11.27198790486021, -61.34920186065672 11.050386208156771, -61.63351045320505 10.756814244181069 C-61.87592857285315 10.47205612686064, -62.11834669250124 10.187298009540209, -62.29836621948847 9.97583682973974 C-62.43773512613264 9.789095191605155, -62.577104032776795 9.60235355347057, -62.91181857355129 9.15386656195472 C-63.133245171331914 8.813695846396799, -63.35467176911254 8.473525130838878, -63.471346708085534 8.29428109296841 C-63.66505117100541 7.950339204350361, -63.85875563392528 7.606397315732313, -63.974651401968 7.400612643853366 C-64.08560568860963 7.170213693600594, -64.19655997525128 6.939814743347823, -64.419664468253 6.476533489958307 C-64.5511878434177 6.151668210470044, -64.68271121858238 5.826802930981781, -64.80455725279616 5.525840870740931 C-64.89613309395584 5.250029027796816, -64.98770893511552 4.9742171848527, -65.12774814858656 4.552441386096519 C-65.18769173664147 4.323850505127763, -65.24763532469638 4.095259624159007, -65.38790909490918 3.5603349433010343 C-65.45319926156657 3.225083736596934, -65.51848942822396 2.8898325298928333, -65.5839710346312 2.5535983205340753 C-65.62170578103824 2.2609350789695744, -65.65944052744528 1.9682718374050736, -65.71512830718717 1.5363684145229202 C-65.73145276986014 1.2821017315224055, -65.7477772325331 1.0278350485218908, -65.780841959211 0.5128252411464846 C-65.780841959211 0.1345465644556667, -65.780841959211 -0.24373211223515123, -65.780841959211 -0.5128252411464769 C-65.75852648015436 -0.8604068401842144, -65.73621100109771 -1.207988439221952, -65.71512830718717 -1.5363684145228982 C-65.6664820795642 -1.9136589496824277, -65.61783585194125 -2.290949484841957, -65.5839710346312 -2.5535983205340678 C-65.51573600220291 -2.903970790574127, -65.44750096977462 -3.2543432606141867, -65.38790909490918 -3.5603349433010267 C-65.32153455835717 -3.813449818079958, -65.25516002180515 -4.066564692858889, -65.12774814858658 -4.552441386096511 C-65.02893826185966 -4.850041021700478, -64.93012837513275 -5.147640657304445, -64.80455725279617 -5.525840870740911 C-64.67264232297013 -5.851673297812896, -64.5407273931441 -6.177505724884881, -64.419664468253 -6.476533489958299 C-64.3005407296017 -6.7238964821074205, -64.1814169909504 -6.9712594742565415, -63.974651401968 -7.400612643853359 C-63.799067121156405 -7.7123803142707645, -63.623482840344806 -8.02414798468817, -63.471346708085534 -8.294281092968404 C-63.35137622757585 -8.478587967616043, -63.23140574706617 -8.662894842263682, -62.911818573551294 -9.153866561954715 C-62.73532529724488 -9.390351473337063, -62.55883202093847 -9.626836384719413, -62.29836621948848 -9.975836829739734 C-62.13666953036793 -10.165774961582986, -61.974972841247386 -10.355713093426239, -61.633510453205055 -10.756814244181063 C-61.38650153202394 -11.011871235110146, -61.13949261084282 -11.26692822603923, -60.91998330965579 -11.493589601563633 C-60.71502853898195 -11.679724101483549, -60.5100737683081 -11.865858601403467, -60.16071682492463 -12.18313533390614 C-59.872623296361596 -12.412882256444393, -59.58452976779856 -12.642629178982647, -59.35883098785946 -12.822617949887302 C-59.159326105555195 -12.9617839193556, -58.95982122325092 -13.1009498888239, -58.51762091936879 -13.409409678269444 C-58.313833739089645 -13.532946664541063, -58.110046558810495 -13.656483650812683, -57.640543332063004 -13.941099265974229 C-57.29032337106186 -14.123808795301937, -56.94010341006071 -14.306518324629646, -56.731202325880936 -14.415501886438705 C-56.36326275640703 -14.578377819305265, -55.995323186933135 -14.741253752171827, -55.793334578069995 -14.830668117536344 C-55.46421374507758 -14.951787626437183, -55.13509291208516 -15.07290713533802, -54.83079398837794 -15.184891952170695 C-54.524826727298866 -15.275701429204037, -54.21885946621978 -15.366510906237382, -53.84753584255213 -15.476717808624466 C-53.515847473273865 -15.55242351444334, -53.184159103995604 -15.628129220262215, -52.847600559221966 -15.704946511857043 C-52.500758723221004 -15.761021210103069, -52.153916887220035 -15.817095908349096, -51.8350970869521 -15.868640221171937 C-51.50997130134107 -15.900004714688869, -51.184845515730025 -15.9313692082058, -50.814186019691405 -15.967126284005381 C-50.525926488799115 -15.976370206097958, -50.237666957906825 -15.985614128190534, -49.78906250000001 -16 C-49.78906250000001 -16, -49.7890625 -16, -49.7890625 -16" stroke="none" stroke-width="0" fill="#ECECFF" style=""/><path d="M-49.7890625 -16 C-20.739462390031537 -16, 8.310137719936925 -16, 49.7890625 -16 M-49.7890625 -16 C-12.240073313621998 -16, 25.308915872756003 -16, 49.7890625 -16 M49.7890625 -16 C49.7890625 -16, 49.7890625 -16, 49.7890625 -16 M49.7890625 -16 C49.7890625 -16, 49.7890625 -16, 49.7890625 -16 M49.7890625 -16 C50.0665217866404 -15.991102420719182, 50.3439810732808 -15.982204841438364, 50.814186019691405 -15.967126284005381 M49.7890625 -16 C50.05435362771287 -15.991492629892102, 50.31964475542575 -15.982985259784206, 50.814186019691405 -15.967126284005381 M50.814186019691405 -15.967126284005381 C51.113643658439116 -15.938237965745893, 51.41310129718683 -15.909349647486403, 51.835097086952096 -15.868640221171939 M50.814186019691405 -15.967126284005381 C51.08044704570285 -15.941440403051791, 51.346708071714296 -15.915754522098203, 51.835097086952096 -15.868640221171939 M51.835097086952096 -15.868640221171939 C52.221068421268576 -15.806239369092053, 52.60703975558505 -15.743838517012167, 52.84760055922195 -15.704946511857047 M51.835097086952096 -15.868640221171939 C52.202799437348474 -15.809192956734169, 52.57050178774485 -15.749745692296397, 52.84760055922195 -15.704946511857047 M52.84760055922195 -15.704946511857047 C53.13312948228636 -15.639776398417949, 53.41865840535076 -15.57460628497885, 53.84753584255211 -15.476717808624471 M52.84760055922195 -15.704946511857047 C53.1961074789957 -15.625402081638878, 53.54461439876945 -15.54585765142071, 53.84753584255211 -15.476717808624471 M53.84753584255211 -15.476717808624471 C54.118518260027464 -15.396291649533524, 54.38950067750281 -15.315865490442576, 54.830793988377934 -15.184891952170698 M53.84753584255211 -15.476717808624471 C54.105408146816096 -15.400182662318269, 54.36328045108008 -15.323647516012064, 54.830793988377934 -15.184891952170698 M54.830793988377934 -15.184891952170698 C55.19038900234276 -15.05255766297177, 55.5499840163076 -14.920223373772842, 55.79333457806999 -14.830668117536348 M54.830793988377934 -15.184891952170698 C55.11553663160122 -15.080104027332387, 55.40027927482451 -14.975316102494077, 55.79333457806999 -14.830668117536348 M55.79333457806999 -14.830668117536348 C56.081227011884664 -14.703226677112212, 56.36911944569933 -14.575785236688079, 56.73120232588093 -14.415501886438706 M55.79333457806999 -14.830668117536348 C56.09476350972251 -14.697234471065338, 56.39619244137504 -14.563800824594328, 56.73120232588093 -14.415501886438706 M56.73120232588093 -14.415501886438706 C57.04560662223402 -14.251477366416863, 57.360010918587115 -14.087452846395017, 57.640543332063004 -13.941099265974232 M56.73120232588093 -14.415501886438706 C57.02409656375386 -14.262699150148112, 57.316990801626794 -14.109896413857516, 57.640543332063004 -13.941099265974232 M57.640543332063004 -13.941099265974232 C57.84056218854776 -13.819846659731903, 58.04058104503251 -13.698594053489574, 58.51762091936878 -13.409409678269451 M57.640543332063004 -13.941099265974232 C57.8296830245201 -13.82644167289853, 58.0188227169772 -13.71178407982283, 58.51762091936878 -13.409409678269451 M58.51762091936878 -13.409409678269451 C58.7940580636854 -13.216579093165286, 59.070495208002015 -13.023748508061121, 59.358830987859456 -12.822617949887306 M58.51762091936878 -13.409409678269451 C58.76535845825745 -13.236598695525927, 59.01309599714612 -13.063787712782403, 59.358830987859456 -12.822617949887306 M59.358830987859456 -12.822617949887306 C59.66663577818641 -12.57715182063103, 59.974440568513366 -12.331685691374757, 60.16071682492461 -12.183135333906153 M59.358830987859456 -12.822617949887306 C59.567943437683574 -12.655856335868567, 59.777055887507686 -12.489094721849828, 60.16071682492461 -12.183135333906153 M60.16071682492461 -12.183135333906153 C60.31577897950735 -12.042311987833896, 60.470841134090094 -11.901488641761642, 60.919983309655784 -11.493589601563642 M60.16071682492461 -12.183135333906153 C60.40037005519297 -11.965488611053432, 60.64002328546133 -11.747841888200712, 60.919983309655784 -11.493589601563642 M60.919983309655784 -11.493589601563642 C61.13877861368865 -11.267665486721175, 61.35757391772151 -11.041741371878707, 61.63351045320505 -10.756814244181072 M60.919983309655784 -11.493589601563642 C61.13465915561093 -11.271919165400211, 61.34933500156608 -11.050248729236783, 61.63351045320505 -10.756814244181072 M61.63351045320505 -10.756814244181072 C61.8005143160866 -10.5606420040514, 61.96751817896815 -10.36446976392173, 62.29836621948848 -9.975836829739738 M61.63351045320505 -10.756814244181072 C61.849484496377364 -10.503118843799676, 62.065458539549674 -10.249423443418282, 62.29836621948848 -9.975836829739738 M62.29836621948848 -9.975836829739738 C62.537837346138474 -9.654967336297181, 62.77730847278847 -9.334097842854627, 62.91181857355129 -9.153866561954718 M62.29836621948848 -9.975836829739738 C62.54286634807299 -9.648228931856428, 62.7873664766575 -9.32062103397312, 62.91181857355129 -9.153866561954718 M62.91181857355129 -9.153866561954718 C63.102458176334245 -8.86099293817893, 63.2930977791172 -8.568119314403141, 63.471346708085534 -8.294281092968403 M62.91181857355129 -9.153866561954718 C63.05710283844476 -8.930670916790701, 63.20238710333824 -8.707475271626683, 63.471346708085534 -8.294281092968403 M63.471346708085534 -8.294281092968403 C63.588680187693356 -8.085943618621547, 63.70601366730117 -7.877606144274692, 63.974651401968 -7.400612643853364 M63.471346708085534 -8.294281092968403 C63.65414033919957 -7.96971249106314, 63.83693397031361 -7.645143889157877, 63.974651401968 -7.400612643853364 M63.974651401968 -7.400612643853364 C64.06615312072883 -7.210607367023382, 64.15765483948964 -7.020602090193399, 64.419664468253 -6.476533489958305 M63.974651401968 -7.400612643853364 C64.11105568249081 -7.1173662367637, 64.24745996301363 -6.834119829674035, 64.419664468253 -6.476533489958305 M64.419664468253 -6.476533489958305 C64.56571791590366 -6.115778650509874, 64.7117713635543 -5.755023811061443, 64.80455725279616 -5.52584087074093 M64.419664468253 -6.476533489958305 C64.56652398511531 -6.1137876439728, 64.71338350197762 -5.751041797987295, 64.80455725279616 -5.52584087074093 M64.80455725279616 -5.52584087074093 C64.90838608907484 -5.213124958748055, 65.0122149253535 -4.900409046755181, 65.12774814858656 -4.552441386096524 M64.80455725279616 -5.52584087074093 C64.92526960990631 -5.162274484027383, 65.04598196701646 -4.798708097313836, 65.12774814858656 -4.552441386096524 M65.12774814858656 -4.552441386096524 C65.22651492631522 -4.1758008568249165, 65.32528170404387 -3.7991603275533086, 65.38790909490918 -3.560334943301032 M65.12774814858656 -4.552441386096524 C65.22350237177928 -4.187289032919843, 65.319256594972 -3.8221366797431617, 65.38790909490918 -3.560334943301032 M65.38790909490918 -3.560334943301032 C65.4463935012635 -3.2600298773552323, 65.50487790761782 -2.9597248114094326, 65.5839710346312 -2.5535983205340735 M65.38790909490918 -3.560334943301032 C65.43579284063803 -3.314462029216655, 65.48367658636687 -3.068589115132278, 65.5839710346312 -2.5535983205340735 M65.5839710346312 -2.5535983205340735 C65.61383448300028 -2.3219833121884195, 65.64369793136936 -2.0903683038427654, 65.71512830718717 -1.536368414522911 M65.5839710346312 -2.5535983205340735 C65.61963808738281 -2.276971702648783, 65.65530514013443 -2.000345084763492, 65.71512830718717 -1.536368414522911 M65.71512830718717 -1.536368414522911 C65.73571598471553 -1.215698718944668, 65.75630366224387 -0.8950290233664249, 65.780841959211 -0.5128252411464826 M65.71512830718717 -1.536368414522911 C65.7380105908416 -1.1799583763582435, 65.76089287449602 -0.8235483381935759, 65.780841959211 -0.5128252411464826 M65.780841959211 -0.5128252411464826 C65.780841959211 -0.1096747198061292, 65.780841959211 0.29347580153422426, 65.780841959211 0.5128252411464788 M65.780841959211 -0.5128252411464826 C65.780841959211 -0.2672561281496182, 65.780841959211 -0.021687015152753675, 65.780841959211 0.5128252411464788 M65.780841959211 0.5128252411464788 C65.76601432016358 0.7437776879649364, 65.75118668111615 0.9747301347833939, 65.71512830718717 1.5363684145229002 M65.780841959211 0.5128252411464788 C65.76135144868765 0.816405675004624, 65.7418609381643 1.1199861088627692, 65.71512830718717 1.5363684145229002 M65.71512830718717 1.5363684145229002 C65.6648130962746 1.926603254498605, 65.61449788536203 2.31683809447431, 65.5839710346312 2.5535983205340624 M65.71512830718717 1.5363684145229002 C65.68065786447562 1.8037143612348516, 65.64618742176407 2.0710603079468033, 65.5839710346312 2.5535983205340624 M65.5839710346312 2.5535983205340624 C65.53689762129001 2.795310349071699, 65.4898242079488 3.0370223776093357, 65.38790909490918 3.5603349433010285 M65.5839710346312 2.5535983205340624 C65.53262251467898 2.817262117975246, 65.48127399472673 3.0809259154164295, 65.38790909490918 3.5603349433010285 M65.38790909490918 3.5603349433010285 C65.32394758775857 3.804247891158841, 65.25998608060797 4.048160839016654, 65.12774814858658 4.552441386096513 M65.38790909490918 3.5603349433010285 C65.29121330318269 3.9290779053753737, 65.1945175114562 4.297820867449719, 65.12774814858658 4.552441386096513 M65.12774814858658 4.552441386096513 C65.02044825577136 4.875611567339722, 64.91314836295612 5.198781748582931, 64.80455725279617 5.525840870740919 M65.12774814858658 4.552441386096513 C65.01187510949877 4.901432517967366, 64.89600207041097 5.250423649838218, 64.80455725279617 5.525840870740919 M64.80455725279617 5.525840870740919 C64.68301977373413 5.826040793791476, 64.56148229467207 6.126240716842034, 64.419664468253 6.4765334899583005 M64.80455725279617 5.525840870740919 C64.69691173479077 5.791727381398766, 64.58926621678538 6.057613892056612, 64.419664468253 6.4765334899583005 M64.419664468253 6.4765334899583005 C64.3283328631899 6.666185522055138, 64.23700125812678 6.855837554151976, 63.974651401968 7.400612643853361 M64.419664468253 6.4765334899583005 C64.30861096587009 6.707138463820714, 64.19755746348717 6.937743437683127, 63.974651401968 7.400612643853361 M63.974651401968 7.400612643853361 C63.77732317289255 7.750988896226751, 63.579994943817105 8.101365148600141, 63.47134670808554 8.294281092968399 M63.974651401968 7.400612643853361 C63.84951279428319 7.622808913455836, 63.72437418659838 7.845005183058312, 63.47134670808554 8.294281092968399 M63.47134670808554 8.294281092968399 C63.33390268463119 8.505432021882314, 63.196458661176834 8.71658295079623, 62.9118185735513 9.15386656195471 M63.47134670808554 8.294281092968399 C63.33127946185361 8.509461996502623, 63.191212215621675 8.724642900036846, 62.9118185735513 9.15386656195471 M62.9118185735513 9.15386656195471 C62.7275258446016 9.400802029334312, 62.543233115651894 9.647737496713914, 62.29836621948848 9.975836829739734 M62.9118185735513 9.15386656195471 C62.7371549755864 9.387899871046557, 62.5624913776215 9.621933180138406, 62.29836621948848 9.975836829739734 M62.29836621948848 9.975836829739734 C62.114712383982464 10.191567075124384, 61.93105854847644 10.407297320509034, 61.633510453205055 10.756814244181063 M62.29836621948848 9.975836829739734 C62.05691696026186 10.259456868479381, 61.81546770103523 10.543076907219026, 61.633510453205055 10.756814244181063 M61.633510453205055 10.756814244181063 C61.447623540824814 10.94875774281299, 61.26173662844458 11.14070124144492, 60.919983309655784 11.493589601563638 M61.633510453205055 10.756814244181063 C61.48928312602518 10.90574080077806, 61.34505579884531 11.05466735737506, 60.919983309655784 11.493589601563638 M60.919983309655784 11.493589601563638 C60.729919128286596 11.666200862260466, 60.539854946917416 11.838812122957291, 60.16071682492463 12.183135333906142 M60.919983309655784 11.493589601563638 C60.76499014947352 11.634350288746877, 60.609996989291254 11.775110975930113, 60.16071682492463 12.183135333906142 M60.16071682492463 12.183135333906142 C59.863276103721276 12.420336393835806, 59.565835382517925 12.657537453765471, 59.35883098785946 12.822617949887304 M60.16071682492463 12.183135333906142 C59.97465164575037 12.331517362895248, 59.78858646657612 12.479899391884352, 59.35883098785946 12.822617949887304 M59.35883098785946 12.822617949887304 C59.1117152429951 12.994995196036497, 58.86459949813075 13.16737244218569, 58.51762091936879 13.409409678269446 M59.35883098785946 12.822617949887304 C59.07057963014148 13.023689618831204, 58.782328272423506 13.224761287775102, 58.51762091936879 13.409409678269446 M58.51762091936879 13.409409678269446 C58.31289074520042 13.533518312978357, 58.10816057103206 13.657626947687268, 57.640543332063004 13.94109926597423 M58.51762091936879 13.409409678269446 C58.20635427318641 13.598101348391053, 57.89508762700404 13.78679301851266, 57.640543332063004 13.94109926597423 M57.640543332063004 13.94109926597423 C57.379783961831976 14.077137262399411, 57.11902459160094 14.213175258824592, 56.73120232588093 14.415501886438705 M57.640543332063004 13.94109926597423 C57.326083736168584 14.105152635731365, 57.011624140274165 14.2692060054885, 56.73120232588093 14.415501886438705 M56.73120232588093 14.415501886438705 C56.49972662026828 14.517969314830586, 56.268250914655624 14.620436743222466, 55.793334578069995 14.830668117536346 M56.73120232588093 14.415501886438705 C56.448558733743305 14.540619820353767, 56.16591514160568 14.665737754268829, 55.793334578069995 14.830668117536346 M55.793334578069995 14.830668117536346 C55.44248947991082 14.959782356835458, 55.09164438175164 15.08889659613457, 54.83079398837794 15.184891952170695 M55.793334578069995 14.830668117536346 C55.558616746550925 14.917046449243212, 55.32389891503186 15.003424780950079, 54.83079398837794 15.184891952170695 M54.83079398837794 15.184891952170695 C54.57322338143908 15.261337556294446, 54.31565277450021 15.337783160418196, 53.84753584255213 15.476717808624468 M54.83079398837794 15.184891952170695 C54.60126466568084 15.253015050323194, 54.37173534298373 15.321138148475693, 53.84753584255213 15.476717808624468 M53.84753584255213 15.476717808624468 C53.59425726176849 15.534526991891132, 53.34097868098485 15.592336175157797, 52.84760055922196 15.704946511857045 M53.84753584255213 15.476717808624468 C53.45920551817712 15.565351671070875, 53.07087519380211 15.65398553351728, 52.84760055922196 15.704946511857045 M52.84760055922196 15.704946511857045 C52.505874083938494 15.76019419825248, 52.164147608655036 15.815441884647914, 51.8350970869521 15.868640221171937 M52.84760055922196 15.704946511857045 C52.56282689807307 15.750986508938873, 52.27805323692419 15.797026506020698, 51.8350970869521 15.868640221171937 M51.8350970869521 15.868640221171937 C51.5960156282715 15.891704121953332, 51.3569341695909 15.914768022734728, 50.814186019691405 15.967126284005381 M51.8350970869521 15.868640221171937 C51.63009447301637 15.888416576786602, 51.42509185908064 15.908192932401267, 50.814186019691405 15.967126284005381 M50.814186019691405 15.967126284005381 C50.409939446894384 15.980089684776761, 50.00569287409736 15.99305308554814, 49.7890625 16 M50.814186019691405 15.967126284005381 C50.49502088445328 15.977361288675219, 50.17585574921516 15.987596293345057, 49.7890625 16 M49.7890625 16 C49.7890625 16, 49.7890625 16, 49.7890625 16 M49.7890625 16 C49.7890625 16, 49.7890625 16, 49.7890625 16 M49.7890625 16 C25.573400224399023 16, 1.3577379487980465 16, -49.7890625 16 M49.7890625 16 C16.356525095468186 16, -17.07601230906363 16, -49.7890625 16 M-49.7890625 16 C-50.01721873611157 15.992683473587075, -50.245374972223146 15.98536694717415, -50.8141860196914 15.967126284005381 M-49.7890625 16 C-50.13982210830677 15.988751822073763, -50.490581716613534 15.977503644147523, -50.8141860196914 15.967126284005381 M-50.8141860196914 15.967126284005381 C-51.20410211231057 15.929511547493119, -51.594018204929746 15.891896810980858, -51.835097086952096 15.868640221171937 M-50.8141860196914 15.967126284005381 C-51.15251573676467 15.93448802310034, -51.490845453837935 15.901849762195297, -51.835097086952096 15.868640221171937 M-51.835097086952096 15.868640221171937 C-52.127760122658195 15.821324731194714, -52.420423158364294 15.774009241217492, -52.84760055922196 15.704946511857045 M-51.835097086952096 15.868640221171937 C-52.08018331911798 15.829016579827474, -52.32526955128386 15.789392938483012, -52.84760055922196 15.704946511857045 M-52.84760055922196 15.704946511857045 C-53.18459694068932 15.628029286894026, -53.52159332215668 15.551112061931008, -53.84753584255211 15.476717808624471 M-52.84760055922196 15.704946511857045 C-53.15084588147126 15.635732745914304, -53.454091203720566 15.566518979971562, -53.84753584255211 15.476717808624471 M-53.84753584255211 15.476717808624471 C-54.137163195898054 15.390757930436397, -54.426790549244 15.304798052248321, -54.83079398837792 15.184891952170702 M-53.84753584255211 15.476717808624471 C-54.089831477865296 15.404805735899263, -54.33212711317847 15.332893663174055, -54.83079398837792 15.184891952170702 M-54.83079398837792 15.184891952170702 C-55.03328981173096 15.110371617325912, -55.23578563508399 15.035851282481124, -55.79333457806999 14.830668117536348 M-54.83079398837792 15.184891952170702 C-55.12499173238311 15.07662446284266, -55.419189476388304 14.968356973514615, -55.79333457806999 14.830668117536348 M-55.79333457806999 14.830668117536348 C-56.13748368034545 14.678323518779402, -56.481632782620906 14.525978920022455, -56.73120232588093 14.415501886438708 M-55.79333457806999 14.830668117536348 C-56.120265540748136 14.685945478421166, -56.44719650342629 14.541222839305986, -56.73120232588093 14.415501886438708 M-56.73120232588093 14.415501886438708 C-57.04919764384158 14.249603932744359, -57.367192961802225 14.083705979050011, -57.640543332063 13.941099265974234 M-56.73120232588093 14.415501886438708 C-56.9598292260041 14.296227379086965, -57.18845612612728 14.176952871735223, -57.640543332063 13.941099265974234 M-57.640543332063 13.941099265974234 C-57.98945704710593 13.729585721470622, -58.33837076214887 13.518072176967008, -58.51762091936877 13.409409678269457 M-57.640543332063 13.941099265974234 C-57.92286811457039 13.76995232369367, -58.20519289707779 13.598805381413104, -58.51762091936877 13.409409678269457 M-58.51762091936877 13.409409678269457 C-58.79847058371012 13.21350111021095, -59.079320248051474 13.017592542152444, -59.358830987859456 12.822617949887308 M-58.51762091936877 13.409409678269457 C-58.707387933123 13.277036424356126, -58.897154946877244 13.144663170442795, -59.358830987859456 12.822617949887308 M-59.358830987859456 12.822617949887308 C-59.59589208164458 12.633568036054315, -59.83295317542971 12.444518122221323, -60.16071682492461 12.183135333906154 M-59.358830987859456 12.822617949887308 C-59.64057055836818 12.59793813981144, -59.922310128876916 12.37325832973557, -60.16071682492461 12.183135333906154 M-60.16071682492461 12.183135333906154 C-60.33659564047308 12.023406847123493, -60.51247445602154 11.863678360340833, -60.91998330965578 11.493589601563649 M-60.16071682492461 12.183135333906154 C-60.385890394224255 11.978638656034384, -60.611063963523904 11.774141978162616, -60.91998330965578 11.493589601563649 M-60.91998330965578 11.493589601563649 C-61.10309384709658 11.304512938001304, -61.28620438453739 11.11543627443896, -61.63351045320505 10.756814244181069 M-60.91998330965578 11.493589601563649 C-61.10163868459643 11.306015512753774, -61.283294059537084 11.118441423943901, -61.63351045320505 10.756814244181069 M-61.63351045320505 10.756814244181069 C-61.852570148558314 10.49949426116934, -62.07162984391158 10.242174278157611, -62.29836621948847 9.97583682973974 M-61.63351045320505 10.756814244181069 C-61.8029699031527 10.557757531756693, -61.97242935310035 10.358700819332315, -62.29836621948847 9.97583682973974 M-62.29836621948847 9.97583682973974 C-62.5308036156898 9.664391894312375, -62.763241011891125 9.352946958885012, -62.91181857355129 9.15386656195472 M-62.29836621948847 9.97583682973974 C-62.48035387804038 9.731989946696947, -62.66234153659229 9.488143063654155, -62.91181857355129 9.15386656195472 M-62.91181857355129 9.15386656195472 C-63.054370500229794 8.934868522024436, -63.1969224269083 8.715870482094154, -63.471346708085534 8.29428109296841 M-62.91181857355129 9.15386656195472 C-63.06923792902987 8.912028158923894, -63.22665728450845 8.670189755893068, -63.471346708085534 8.29428109296841 M-63.471346708085534 8.29428109296841 C-63.598525396313356 8.068462453781263, -63.72570408454118 7.842643814594119, -63.974651401968 7.400612643853366 M-63.471346708085534 8.29428109296841 C-63.64381737002433 7.988041968147767, -63.816288031963126 7.681802843327125, -63.974651401968 7.400612643853366 M-63.974651401968 7.400612643853366 C-64.13096505021717 7.0760240086876784, -64.28727869846635 6.751435373521992, -64.419664468253 6.476533489958307 M-63.974651401968 7.400612643853366 C-64.15254024751562 7.031222649862186, -64.33042909306324 6.661832655871006, -64.419664468253 6.476533489958307 M-64.419664468253 6.476533489958307 C-64.5171944112965 6.235632645027699, -64.61472435433998 5.994731800097091, -64.80455725279616 5.525840870740931 M-64.419664468253 6.476533489958307 C-64.52853528330674 6.207620471901563, -64.63740609836047 5.938707453844818, -64.80455725279616 5.525840870740931 M-64.80455725279616 5.525840870740931 C-64.93301476732833 5.138947303895514, -65.06147228186049 4.752053737050096, -65.12774814858656 4.552441386096519 M-64.80455725279616 5.525840870740931 C-64.9168173747258 5.187731269710311, -65.02907749665542 4.84962166867969, -65.12774814858656 4.552441386096519 M-65.12774814858656 4.552441386096519 C-65.19975689737838 4.27784081816421, -65.27176564617018 4.0032402502319, -65.38790909490918 3.5603349433010343 M-65.12774814858656 4.552441386096519 C-65.23129836595287 4.157559528330699, -65.33484858331919 3.762677670564879, -65.38790909490918 3.5603349433010343 M-65.38790909490918 3.5603349433010343 C-65.43062053212877 3.3410207402438887, -65.47333196934837 3.121706537186743, -65.5839710346312 2.5535983205340753 M-65.38790909490918 3.5603349433010343 C-65.4443519526687 3.270512797908131, -65.50079481042822 2.980690652515228, -65.5839710346312 2.5535983205340753 M-65.5839710346312 2.5535983205340753 C-65.62864918278525 2.2070834261495, -65.67332733093932 1.860568531764925, -65.71512830718717 1.5363684145229202 M-65.5839710346312 2.5535983205340753 C-65.62954891119138 2.200105310303133, -65.67512678775154 1.8466123000721906, -65.71512830718717 1.5363684145229202 M-65.71512830718717 1.5363684145229202 C-65.73535942256443 1.2212524622597236, -65.75559053794169 0.9061365099965268, -65.780841959211 0.5128252411464846 M-65.71512830718717 1.5363684145229202 C-65.72851307293915 1.327889883947355, -65.74189783869113 1.1194113533717895, -65.780841959211 0.5128252411464846 M-65.780841959211 0.5128252411464846 C-65.780841959211 0.26379891146263457, -65.780841959211 0.014772581778784488, -65.780841959211 -0.5128252411464769 M-65.780841959211 0.5128252411464846 C-65.780841959211 0.1819742290323989, -65.780841959211 -0.14887678308168684, -65.780841959211 -0.5128252411464769 M-65.780841959211 -0.5128252411464769 C-65.76508343513818 -0.7582769736324674, -65.74932491106534 -1.0037287061184579, -65.71512830718717 -1.5363684145228982 M-65.780841959211 -0.5128252411464769 C-65.75910652926444 -0.8513721070873296, -65.7373710993179 -1.1899189730281823, -65.71512830718717 -1.5363684145228982 M-65.71512830718717 -1.5363684145228982 C-65.68029845571611 -1.8065018646003355, -65.64546860424505 -2.0766353146777727, -65.5839710346312 -2.5535983205340678 M-65.71512830718717 -1.5363684145228982 C-65.67076659899578 -1.8804290630452114, -65.6264048908044 -2.2244897115675246, -65.5839710346312 -2.5535983205340678 M-65.5839710346312 -2.5535983205340678 C-65.5148943993206 -2.908292243501992, -65.44581776400999 -3.262986166469916, -65.38790909490918 -3.5603349433010267 M-65.5839710346312 -2.5535983205340678 C-65.5247168892727 -2.857855833581931, -65.46546274391419 -3.1621133466297935, -65.38790909490918 -3.5603349433010267 M-65.38790909490918 -3.5603349433010267 C-65.30302856921281 -3.8840211752338076, -65.21814804351645 -4.2077074071665885, -65.12774814858658 -4.552441386096511 M-65.38790909490918 -3.5603349433010267 C-65.29260942326617 -3.923753894414766, -65.19730975162317 -4.287172845528505, -65.12774814858658 -4.552441386096511 M-65.12774814858658 -4.552441386096511 C-65.04258166559217 -4.808949263439356, -64.95741518259777 -5.0654571407821996, -64.80455725279617 -5.525840870740911 M-65.12774814858658 -4.552441386096511 C-65.0310703628743 -4.843619473148572, -64.93439257716203 -5.134797560200633, -64.80455725279617 -5.525840870740911 M-64.80455725279617 -5.525840870740911 C-64.69091816237305 -5.806531621148365, -64.57727907194993 -6.08722237155582, -64.419664468253 -6.476533489958299 M-64.80455725279617 -5.525840870740911 C-64.71227047457634 -5.7537909971873615, -64.61998369635651 -5.981741123633812, -64.419664468253 -6.476533489958299 M-64.419664468253 -6.476533489958299 C-64.30774497900187 -6.708936704081735, -64.19582548975073 -6.941339918205171, -63.974651401968 -7.400612643853359 M-64.419664468253 -6.476533489958299 C-64.32263383676876 -6.678019672358262, -64.22560320528451 -6.879505854758226, -63.974651401968 -7.400612643853359 M-63.974651401968 -7.400612643853359 C-63.8283118902909 -7.660453265318479, -63.68197237861379 -7.920293886783599, -63.471346708085534 -8.294281092968404 M-63.974651401968 -7.400612643853359 C-63.823780080320084 -7.668499952817174, -63.672908758672165 -7.93638726178099, -63.471346708085534 -8.294281092968404 M-63.471346708085534 -8.294281092968404 C-63.26026416926795 -8.618560556190346, -63.049181630450356 -8.942840019412289, -62.911818573551294 -9.153866561954715 M-63.471346708085534 -8.294281092968404 C-63.34536145288555 -8.487828276733495, -63.21937619768557 -8.681375460498586, -62.911818573551294 -9.153866561954715 M-62.911818573551294 -9.153866561954715 C-62.71700445657887 -9.414899730766592, -62.52219033960645 -9.675932899578472, -62.29836621948848 -9.975836829739734 M-62.911818573551294 -9.153866561954715 C-62.78073831972871 -9.329502160420185, -62.64965806590613 -9.505137758885658, -62.29836621948848 -9.975836829739734 M-62.29836621948848 -9.975836829739734 C-62.12380527458058 -10.180886048427693, -61.949244329672695 -10.385935267115654, -61.633510453205055 -10.756814244181063 M-62.29836621948848 -9.975836829739734 C-62.090963577043354 -10.21946377510046, -61.88356093459822 -10.463090720461183, -61.633510453205055 -10.756814244181063 M-61.633510453205055 -10.756814244181063 C-61.466475440571635 -10.929291608554651, -61.29944042793821 -11.10176897292824, -60.91998330965579 -11.493589601563633 M-61.633510453205055 -10.756814244181063 C-61.39333050168298 -11.00481976326835, -61.15315055016091 -11.252825282355635, -60.91998330965579 -11.493589601563633 M-60.91998330965579 -11.493589601563633 C-60.61954611725332 -11.766438710571041, -60.31910892485086 -12.039287819578451, -60.16071682492463 -12.18313533390614 M-60.91998330965579 -11.493589601563633 C-60.75109315218458 -11.646971173990288, -60.58220299471338 -11.800352746416944, -60.16071682492463 -12.18313533390614 M-60.16071682492463 -12.18313533390614 C-59.900360765300306 -12.390762363090817, -59.64000470567599 -12.598389392275491, -59.35883098785946 -12.822617949887302 M-60.16071682492463 -12.18313533390614 C-59.94928258001711 -12.351748517718327, -59.737848335109604 -12.520361701530515, -59.35883098785946 -12.822617949887302 M-59.35883098785946 -12.822617949887302 C-59.08235550373102 -13.01547527918449, -58.80588001960259 -13.208332608481676, -58.51762091936879 -13.409409678269444 M-59.35883098785946 -12.822617949887302 C-59.14162792791775 -12.974129401933714, -58.92442486797605 -13.125640853980126, -58.51762091936879 -13.409409678269444 M-58.51762091936879 -13.409409678269444 C-58.23738935686147 -13.579287698284837, -57.957157794354146 -13.74916571830023, -57.640543332063004 -13.941099265974229 M-58.51762091936879 -13.409409678269444 C-58.23912456034724 -13.578235807734572, -57.960628201325704 -13.747061937199698, -57.640543332063004 -13.941099265974229 M-57.640543332063004 -13.941099265974229 C-57.31340028464949 -14.111769584264739, -56.98625723723597 -14.28243990255525, -56.731202325880936 -14.415501886438705 M-57.640543332063004 -13.941099265974229 C-57.36546592761851 -14.084606971677438, -57.09038852317401 -14.228114677380646, -56.731202325880936 -14.415501886438705 M-56.731202325880936 -14.415501886438705 C-56.52493911045501 -14.50680849332687, -56.31867589502908 -14.598115100215036, -55.793334578069995 -14.830668117536344 M-56.731202325880936 -14.415501886438705 C-56.51043429255298 -14.513229345941962, -56.28966625922503 -14.61095680544522, -55.793334578069995 -14.830668117536344 M-55.793334578069995 -14.830668117536344 C-55.493139754981996 -14.941142587403252, -55.192944931894004 -15.05161705727016, -54.83079398837794 -15.184891952170695 M-55.793334578069995 -14.830668117536344 C-55.58290595886534 -14.908107794584492, -55.372477339660676 -14.98554747163264, -54.83079398837794 -15.184891952170695 M-54.83079398837794 -15.184891952170695 C-54.527060058504524 -15.275038588225192, -54.223326128631115 -15.365185224279688, -53.84753584255213 -15.476717808624466 M-54.83079398837794 -15.184891952170695 C-54.48379859068258 -15.287878364790668, -54.136803192987216 -15.39086477741064, -53.84753584255213 -15.476717808624466 M-53.84753584255213 -15.476717808624466 C-53.46363897332159 -15.564339763865146, -53.07974210409105 -15.651961719105826, -52.847600559221966 -15.704946511857043 M-53.84753584255213 -15.476717808624466 C-53.6284479310089 -15.526723194751975, -53.40936001946567 -15.576728580879484, -52.847600559221966 -15.704946511857043 M-52.847600559221966 -15.704946511857043 C-52.48081872840511 -15.764244953827932, -52.114036897588264 -15.823543395798822, -51.8350970869521 -15.868640221171937 M-52.847600559221966 -15.704946511857043 C-52.61496808691415 -15.742556725888004, -52.38233561460634 -15.780166939918963, -51.8350970869521 -15.868640221171937 M-51.8350970869521 -15.868640221171937 C-51.56493359560786 -15.89470256826278, -51.29477010426363 -15.920764915353624, -50.814186019691405 -15.967126284005381 M-51.8350970869521 -15.868640221171937 C-51.4821850313916 -15.902685222733014, -51.1292729758311 -15.936730224294092, -50.814186019691405 -15.967126284005381 M-50.814186019691405 -15.967126284005381 C-50.55848449628788 -15.97532613416811, -50.30278297288436 -15.98352598433084, -49.78906250000001 -16 M-50.814186019691405 -15.967126284005381 C-50.58551828683273 -15.974459213123419, -50.356850553974056 -15.981792142241455, -49.78906250000001 -16 M-49.78906250000001 -16 C-49.78906250000001 -16, -49.7890625 -16, -49.7890625 -16 M-49.78906250000001 -16 C-49.78906250000001 -16, -49.7890625 -16, -49.7890625 -16" stroke="#9370DB" stroke-width="1.3" fill="none" stroke-dasharray="0 0" style=""/></g><g class="label" style="" transform="translate(0, -8.5)"><rect/><g><rect class="background" style="stroke: none"/><text y="-10.1" style=""><tspan class="text-outer-tspan" x="0" y="-0.1em" dy="1.1em"><tspan font-style="normal" class="text-inner-tspan" font-weight="normal">Nœud</tspan><tspan font-style="normal" class="text-inner-tspan" font-weight="normal"> démarre</tspan></tspan></text></g></g></g><g class="node default  " id="flowchart-B-1" transform="translate(682.039845276624, 122.29999923706055)"><rect class="basic label-container" style="" x="-125.9453125" y="-32.29999923706055" width="251.890625" height="64.5999984741211"/><g class="label" style="" transform="translate(0, -17.299999237060547)"><rect/><g><rect class="background" style="stroke: none"/><text y="-10.1" style=""><tspan class="text-outer-tspan" x="0" y="-0.1em" dy="1.1em"><tspan font-style="normal" class="text-inner-tspan" font-weight="normal">Lecture</tspan><tspan font-style="normal" class="text-inner-tspan" font-weight="normal"> adresse</tspan><tspan font-style="normal" class="text-inner-tspan" font-weight="normal"> MAC</tspan><tspan font-style="normal" class="text-inner-tspan" font-weight="normal"> pour</tspan></tspan><tspan class="text-outer-tspan" x="0" y="1em" dy="1.1em"><tspan font-style="normal" class="text-inner-tspan" font-weight="normal">construction</tspan><tspan font-style="normal" class="text-inner-tspan" font-weight="normal"> de</tspan><tspan font-style="normal" class="text-inner-tspan" font-weight="normal"> l'ID</tspan><tspan font-style="normal" class="text-inner-tspan" font-weight="normal"> unique</tspan></tspan></text></g></g></g><g class="node default  " id="flowchart-C-3" transform="translate(682.039845276624, 228.0999984741211)"><rect class="basic label-container" style="" x="-129.0078125" y="-23.5" width="258.015625" height="47"/><g class="label" style="" transform="translate(0, -8.5)"><rect/><g><rect class="background" style="stroke: none"/><text y="-10.1" style=""><tspan class="text-outer-tspan" x="0" y="-0.1em" dy="1.1em"><tspan font-style="normal" class="text-inner-tspan" font-weight="normal">Démarrage</tspan><tspan font-style="normal" class="text-inner-tspan" font-weight="normal"> de</tspan><tspan font-style="normal" class="text-inner-tspan" font-weight="normal"> antsd</tspan><tspan font-style="normal" class="text-inner-tspan" font-weight="normal"> et</tspan><tspan font-style="normal" class="text-inner-tspan" font-weight="normal"> Serf</tspan></tspan></text></g></g></g><g class="node default  " id="flowchart-D-5" transform="translate(682.039845276624, 342.6999969482422)"><rect class="basic label-container" style="" x="-125.52734375" y="-41.099998474121094" width="251.0546875" height="82.19999694824219"/><g class="label" style="" transform="translate(0, -26.099998474121094)"><rect/><g><rect class="background" style="stroke: none"/><text y="-10.1" style=""><tspan class="text-outer-tspan" x="0" y="-0.1em" dy="1.1em"><tspan font-style="normal" class="text-inner-tspan" font-weight="normal">Serf</tspan><tspan font-style="normal" class="text-inner-tspan" font-weight="normal"> effectue</tspan><tspan font-style="normal" class="text-inner-tspan" font-weight="normal"> la</tspan><tspan font-style="normal" class="text-inner-tspan" font-weight="normal"> découverte</tspan></tspan><tspan class="text-outer-tspan" x="0" y="1em" dy="1.1em"><tspan font-style="normal" class="text-inner-tspan" font-weight="normal">via</tspan><tspan font-style="normal" class="text-inner-tspan" font-weight="normal"> mDNS</tspan><tspan font-style="normal" class="text-inner-tspan" font-weight="normal"> +</tspan><tspan font-style="normal" class="text-inner-tspan" font-weight="normal"> démarrage</tspan><tspan font-style="normal" class="text-inner-tspan" font-weight="normal"> du</tspan></tspan><tspan class="text-outer-tspan" x="0" y="2.1em" dy="1.1em"><tspan font-style="normal" class="text-inner-tspan" font-weight="normal">timer</tspan></tspan></text></g></g></g><g class="node default  " id="flowchart-F-9" transform="translate(533.6460952758789, 457.2999954223633)"><rect class="basic label-container" style="" x="-74.2109375" y="-23.5" width="148.421875" height="47"/><g class="label" style="" transform="translate(0, -8.5)"><rect/><g><rect class="background" style="stroke: none"/><text y="-10.1" style=""><tspan class="text-outer-tspan" x="0" y="-0.1em" dy="1.1em"><tspan font-style="normal" class="text-inner-tspan" font-weight="normal">Timer</tspan><tspan font-style="normal" class="text-inner-tspan" font-weight="normal"> expire</tspan></tspan></text></g></g></g><g class="node default  " id="flowchart-G-11" transform="translate(533.6460952758789, 601.6999931335449)"><rect class="basic label-container" style="" x="-122.4765625" y="-32.29999923706055" width="244.953125" height="64.5999984741211"/><g class="label" style="" transform="translate(0, -17.299999237060547)"><rect/><g><rect class="background" style="stroke: none"/><text y="-10.1" style=""><tspan class="text-outer-tspan" x="0" y="-0.1em" dy="1.1em"><tspan font-style="normal" class="text-inner-tspan" font-weight="normal">Serf</tspan><tspan font-style="normal" class="text-inner-tspan" font-weight="normal"> Query</tspan><tspan font-style="normal" class="text-inner-tspan" font-weight="normal"> :</tspan><tspan font-style="normal" class="text-inner-tspan" font-weight="normal"> existe-t-il</tspan><tspan font-style="normal" class="text-inner-tspan" font-weight="normal"> des</tspan></tspan><tspan class="text-outer-tspan" x="0" y="1em" dy="1.1em"><tspan font-style="normal" class="text-inner-tspan" font-weight="normal">nodes</tspan><tspan font-style="normal" class="text-inner-tspan" font-weight="normal"> en</tspan><tspan font-style="normal" class="text-inner-tspan" font-weight="normal"> état</tspan><tspan font-style="normal" class="text-inner-tspan" font-weight="normal"> stable</tspan><tspan font-style="normal" class="text-inner-tspan" font-weight="normal"> ?</tspan></tspan></text></g></g></g><g class="node default  " id="flowchart-I-13" transform="translate(269.53125, 838.5765609741211)"><rect class="basic label-container" style="" x="-123.421875" y="-32.29999923706055" width="246.84375" height="64.5999984741211"/><g class="label" style="" transform="translate(0, -17.299999237060547)"><rect/><g><rect class="background" style="stroke: none"/><text y="-10.1" style=""><tspan class="text-outer-tspan" x="0" y="-0.1em" dy="1.1em"><tspan font-style="normal" class="text-inner-tspan" font-weight="normal">Lire</tspan><tspan font-style="normal" class="text-inner-tspan" font-weight="normal"> le</tspan><tspan font-style="normal" class="text-inner-tspan" font-weight="normal"> nombre</tspan><tspan font-style="normal" class="text-inner-tspan" font-weight="normal"> de</tspan><tspan font-style="normal" class="text-inner-tspan" font-weight="normal"> node</tspan><tspan font-style="normal" class="text-inner-tspan" font-weight="normal"> en</tspan></tspan><tspan class="text-outer-tspan" x="0" y="1em" dy="1.1em"><tspan font-style="normal" class="text-inner-tspan" font-weight="normal">état</tspan><tspan font-style="normal" class="text-inner-tspan" font-weight="normal"> stable-server</tspan></tspan></text></g></g></g><g class="node default  " id="flowchart-J-15" transform="translate(269.53125, 1148.8711013793945)"><polygon points="105.71796798706055,0 211.4359359741211,-105.71796798706055 105.71796798706055,-211.4359359741211 0,-105.71796798706055" class="label-container" transform="translate(-105.21796798706055, 105.71796798706055)"/><g class="label" style="" transform="translate(0, -17.299999237060547)"><rect/><g><rect class="background" style="stroke: none"/><text y="-10.1" style=""><tspan class="text-outer-tspan" x="0" y="-0.1em" dy="1.1em"><tspan font-style="normal" class="text-inner-tspan" font-weight="normal">Nb</tspan><tspan font-style="normal" class="text-inner-tspan" font-weight="normal"> node</tspan><tspan font-style="normal" class="text-inner-tspan" font-weight="normal"> en</tspan><tspan font-style="normal" class="text-inner-tspan" font-weight="normal"> état</tspan></tspan><tspan class="text-outer-tspan" x="0" y="1em" dy="1.1em"><tspan font-style="normal" class="text-inner-tspan" font-weight="normal">stable-server</tspan><tspan font-style="normal" class="text-inner-tspan" font-weight="normal"> &amp;lt;</tspan><tspan font-style="normal" class="text-inner-tspan" font-weight="normal"> 3</tspan><tspan font-style="normal" class="text-inner-tspan" font-weight="normal"> ?</tspan></tspan></text></g></g></g><g class="node default  " id="flowchart-K-17" transform="translate(126.83203125, 1349.0890731811523)"><rect class="basic label-container" style="" x="-118.83203125" y="-23.5" width="237.6640625" height="47"/><g class="label" style="" transform="translate(0, -8.5)"><rect/><g><rect class="background" style="stroke: none"/><text y="-10.1" style=""><tspan class="text-outer-tspan" x="0" y="-0.1em" dy="1.1em"><tspan font-style="normal" class="text-inner-tspan" font-weight="normal">Installation</tspan><tspan font-style="normal" class="text-inner-tspan" font-weight="normal"> de</tspan><tspan font-style="normal" class="text-inner-tspan" font-weight="normal"> k3s</tspan><tspan font-style="normal" class="text-inner-tspan" font-weight="normal"> server</tspan></tspan></text></g></g></g><g class="node default  " id="flowchart-L-19" transform="translate(412.23046875, 1349.0890731811523)"><rect class="basic label-container" style="" x="-116.56640625" y="-23.5" width="233.1328125" height="47"/><g class="label" style="" transform="translate(0, -8.5)"><rect/><g><rect class="background" style="stroke: none"/><text y="-10.1" style=""><tspan class="text-outer-tspan" x="0" y="-0.1em" dy="1.1em"><tspan font-style="normal" class="text-inner-tspan" font-weight="normal">Installation</tspan><tspan font-style="normal" class="text-inner-tspan" font-weight="normal"> de</tspan><tspan font-style="normal" class="text-inner-tspan" font-weight="normal"> k3s</tspan><tspan font-style="normal" class="text-inner-tspan" font-weight="normal"> agent</tspan></tspan></text></g></g></g><g class="node default  " id="flowchart-M-21" transform="translate(687.1453170776367, 838.5765609741211)"><polygon points="133.5765609741211,0 267.1531219482422,-133.5765609741211 133.5765609741211,-267.1531219482422 0,-133.5765609741211" class="label-container" transform="translate(-133.0765609741211, 133.5765609741211)"/><g class="label" style="" transform="translate(0, -26.099998474121094)"><rect/><g><rect class="background" style="stroke: none"/><text y="-10.1" style=""><tspan class="text-outer-tspan" x="0" y="-0.1em" dy="1.1em"><tspan font-style="normal" class="text-inner-tspan" font-weight="normal">Serf</tspan><tspan font-style="normal" class="text-inner-tspan" font-weight="normal"> Query</tspan><tspan font-style="normal" class="text-inner-tspan" font-weight="normal"> :</tspan><tspan font-style="normal" class="text-inner-tspan" font-weight="normal"> existe-t-il</tspan><tspan font-style="normal" class="text-inner-tspan" font-weight="normal"> des</tspan></tspan><tspan class="text-outer-tspan" x="0" y="1em" dy="1.1em"><tspan font-style="normal" class="text-inner-tspan" font-weight="normal">nodes</tspan><tspan font-style="normal" class="text-inner-tspan" font-weight="normal"> en</tspan><tspan font-style="normal" class="text-inner-tspan" font-weight="normal"> état</tspan></tspan><tspan class="text-outer-tspan" x="0" y="2.1em" dy="1.1em"><tspan font-style="normal" class="text-inner-tspan" font-weight="normal">bootstrap-waiting</tspan><tspan font-style="normal" class="text-inner-tspan" font-weight="normal"> ?</tspan></tspan></text></g></g></g><g class="node default  " id="flowchart-P-23" transform="translate(549.7156295776367, 1148.8711013793945)"><rect class="basic label-container" style="fill:#f2ce81ff !important" x="-97.65234375" y="-32.29999923706055" width="195.3046875" height="64.5999984741211"/><g class="label" style="color:#000 !important" transform="translate(0, -17.299999237060547)"><rect/><g><rect class="background" style="stroke: none"/><text y="-10.1" style="fill:#000 !important"><tspan class="text-outer-tspan" x="0" y="-0.1em" dy="1.1em"><tspan font-style="normal" class="text-inner-tspan" font-weight="normal">On</tspan><tspan font-style="normal" class="text-inner-tspan" font-weight="normal"> passe</tspan><tspan font-style="normal" class="text-inner-tspan" font-weight="normal"> en</tspan><tspan font-style="normal" class="text-inner-tspan" font-weight="normal"> mode</tspan></tspan><tspan class="text-outer-tspan" x="0" y="1em" dy="1.1em"><tspan font-style="normal" class="text-inner-tspan" font-weight="normal">bootstrap-waiting</tspan></tspan></text></g></g></g><g class="node default  " id="flowchart-N-25" transform="translate(824.5750045776367, 1148.8711013793945)"><rect class="basic label-container" style="fill:#f2ce81ff !important" x="-127.20703125" y="-49.900001525878906" width="254.4140625" height="99.80000305175781"/><g class="label" style="color:#000 !important" transform="translate(0, -34.900001525878906)"><rect/><g><rect class="background" style="stroke: none"/><text y="-10.1" style="fill:#000 !important"><tspan class="text-outer-tspan" x="0" y="-0.1em" dy="1.1em"><tspan font-style="normal" class="text-inner-tspan" font-weight="normal">On</tspan><tspan font-style="normal" class="text-inner-tspan" font-weight="normal"> déclenche</tspan><tspan font-style="normal" class="text-inner-tspan" font-weight="normal"> le</tspan><tspan font-style="normal" class="text-inner-tspan" font-weight="normal"> processus</tspan></tspan><tspan class="text-outer-tspan" x="0" y="1em" dy="1.1em"><tspan font-style="normal" class="text-inner-tspan" font-weight="normal">de</tspan><tspan font-style="normal" class="text-inner-tspan" font-weight="normal"> bootstrapping:</tspan><tspan font-style="normal" class="text-inner-tspan" font-weight="normal"> on</tspan></tspan><tspan class="text-outer-tspan" x="0" y="2.1em" dy="1.1em"><tspan font-style="normal" class="text-inner-tspan" font-weight="normal">broadcast</tspan><tspan font-style="normal" class="text-inner-tspan" font-weight="normal"> l'info</tspan><tspan font-style="normal" class="text-inner-tspan" font-weight="normal"> et</tspan><tspan font-style="normal" class="text-inner-tspan" font-weight="normal"> on</tspan><tspan font-style="normal" class="text-inner-tspan" font-weight="normal"> passe</tspan></tspan><tspan class="text-outer-tspan" x="0" y="3.2em" dy="1.1em"><tspan font-style="normal" class="text-inner-tspan" font-weight="normal">en</tspan><tspan font-style="normal" class="text-inner-tspan" font-weight="normal"> mode</tspan><tspan font-style="normal" class="text-inner-tspan" font-weight="normal"> bootstrap-waiting</tspan></tspan></text></g></g></g><g class="label edgeLabel" id="D---D---1" transform="translate(682.039845276624, 457.2999954223633)"><rect width="0.1" height="0.1"/><g class="label" style="" transform="translate(0, 0)"><rect/><g><rect class="background" style="stroke: none"/><text y="-10.1" style=""><tspan class="text-outer-tspan" x="0" y="-0.1em" dy="1.1em"/></text></g></g></g><g class="label edgeLabel" id="D---D---2" transform="translate(742.516407776624, 601.6999931335449)"><rect width="0.1" height="0.1"/><g class="label" style="" transform="translate(0, 0)"><rect/><g><rect class="background" style="stroke: none"/><text y="-10.1" style=""><tspan class="text-outer-tspan" x="0" y="-0.1em" dy="1.1em"/></text></g></g></g></g></g></g></svg>