<svg xmlns="http://www.w3.org/2000/svg" xmlns:xlink="http://www.w3.org/1999/xlink" contentStyleType="text/css" height="385px" preserveAspectRatio="none" style="width:487px;height:385px;background:#FFFFFF;" version="1.1" viewBox="0 0 487 385" width="487px" zoomAndPan="magnify"><defs/><g><!--cluster Syst?me autonome--><g id="cluster_Syst&#232;me autonome"><rect fill="none" height="196" rx="2.5" ry="2.5" style="stroke:#181818;stroke-width:1.0;" width="220.01" x="250.47" y="7"/><text fill="#000000" font-family="sans-serif" font-size="14" font-weight="bold" lengthAdjust="spacing" textLength="152" x="284.475" y="21.9951">Syst&#232;me autonome</text></g><g id="elem_UC_Decouverte"><ellipse cx="360.4696" cy="165.9999" fill="#F1F1F1" rx="90.9996" ry="20.5999" style="stroke:#181818;stroke-width:0.5;"/><text fill="#000000" font-family="sans-serif" font-size="14" lengthAdjust="spacing" textLength="144" x="288.4696" y="168.8466">D&#233;couvrir les n&#339;uds</text></g><g id="elem_UC_Cluster"><ellipse cx="360.4675" cy="68.004" fill="#F1F1F1" rx="94.0075" ry="26.174" style="stroke:#181818;stroke-width:0.5;"/><text fill="#000000" font-family="sans-serif" font-size="14" lengthAdjust="spacing" textLength="116" x="299.4675" y="63.6031">Former le cluster</text><text fill="#000000" font-family="sans-serif" font-size="14" lengthAdjust="spacing" textLength="26" x="344.4675" y="79.9">K3s</text></g><!--entity Client--><g id="elem_Client"><ellipse cx="41" cy="280.35" fill="#F1F1F1" rx="8" ry="8" style="stroke:#181818;stroke-width:0.5;"/><path d="M41,288.35 L41,315.35 M28,296.35 L54,296.35 M41,315.35 L28,330.35 M41,315.35 L54,330.35 " fill="none" style="stroke:#181818;stroke-width:0.5;"/><text fill="#000000" font-family="sans-serif" font-size="14" lengthAdjust="spacing" textLength="70" x="6" y="344.8451">Client final</text></g><g id="elem_UC_Brancher"><ellipse cx="360.475" cy="264.995" fill="#F1F1F1" rx="121.475" ry="26.695" style="stroke:#181818;stroke-width:0.5;"/><text fill="#000000" font-family="sans-serif" font-size="14" lengthAdjust="spacing" textLength="157" x="278.975" y="260.5941">Brancher l'alimentation</text><text fill="#000000" font-family="sans-serif" font-size="14" lengthAdjust="spacing" textLength="82" x="316.475" y="276.891">et le r&#233;seau</text></g><g id="elem_UC_Web"><ellipse cx="360.4681" cy="353.0016" fill="#F1F1F1" rx="120.1081" ry="26.4216" style="stroke:#181818;stroke-width:0.5;"/><text fill="#000000" font-family="sans-serif" font-size="14" lengthAdjust="spacing" textLength="153" x="280.9681" y="348.6008">Acc&#233;der &#224; l'application</text><text fill="#000000" font-family="sans-serif" font-size="14" lengthAdjust="spacing" textLength="71" x="321.9681" y="364.8976">Web finale</text></g><!--link Client to UC_Brancher--><g id="link_Client_UC_Brancher"><path d="M76.17,303.89 C85.81,302.23 96.3,300.48 106,299 C154.61,291.56 202.6507,284.9785 248.2707,279.0085 " fill="none" id="Client-to-UC_Brancher" style="stroke:#181818;stroke-width:1.0;"/><polygon fill="#181818" points="254.22,278.23,244.7771,275.4316,249.2623,278.8788,245.8151,283.364,254.22,278.23" style="stroke:#181818;stroke-width:1.0;"/></g><!--link Client to UC_Web--><g id="link_Client_UC_Web"><path d="M76.28,314.64 C119.25,320.46 188.8842,329.8951 251.1542,338.3251 " fill="none" id="Client-to-UC_Web" style="stroke:#181818;stroke-width:1.0;"/><polygon fill="#181818" points="257.1,339.13,248.718,333.9588,252.1452,338.4592,247.6447,341.8865,257.1,339.13" style="stroke:#181818;stroke-width:1.0;"/></g><!--link UC_Brancher to UC_Decouverte--><g id="link_UC_Brancher_UC_Decouverte"><path d="M360.47,237.95 C360.47,221.92 360.47,207.9 360.47,193.05 " fill="none" id="UC_Brancher-to-UC_Decouverte" style="stroke:#181818;stroke-width:1.0;stroke-dasharray:7.0,7.0;"/><polygon fill="#181818" points="360.47,187.05,356.47,196.05,360.47,192.05,364.47,196.05,360.47,187.05" style="stroke:#181818;stroke-width:1.0;"/><text fill="#000000" font-family="sans-serif" font-size="13" lengthAdjust="spacing" textLength="81" x="308.47" y="217.0169">&#171;d&#233;clenche&#187;</text></g><!--link UC_Decouverte to UC_Cluster--><g id="link_UC_Decouverte_UC_Cluster"><path d="M360.47,145.22 C360.47,130.38 360.47,116.32 360.47,100.36 " fill="none" id="UC_Decouverte-to-UC_Cluster" style="stroke:#181818;stroke-width:1.0;stroke-dasharray:7.0,7.0;"/><polygon fill="#181818" points="360.47,94.36,356.47,103.36,360.47,99.36,364.47,103.36,360.47,94.36" style="stroke:#181818;stroke-width:1.0;"/><text fill="#000000" font-family="sans-serif" font-size="13" lengthAdjust="spacing" textLength="69" x="314.47" y="124.3569">&#171;entra&#238;ne&#187;</text></g><!--link UC_Cluster to UC_Web--><g id="link_UC_Cluster_UC_Web"><path d="M278.77,81.29 C229.48,93.97 170.46,118.48 139.83,165.5 C97.51,230.46 176.21,263.53 239,309 C252.26,318.6 262.2573,324.1115 277.7473,330.2115 " fill="none" id="UC_Cluster-to-UC_Web" style="stroke:#181818;stroke-width:1.0;stroke-dasharray:7.0,7.0;"/><polygon fill="#181818" points="283.33,332.41,276.4216,325.3905,278.6777,330.5779,273.4903,332.8341,283.33,332.41" style="stroke:#181818;stroke-width:1.0;"/><text fill="#000000" font-family="sans-serif" font-size="13" lengthAdjust="spacing" textLength="101" x="107" y="178.5669">&#171;rend possible&#187;</text></g><!--SRC=[LP0zJWCn58Hxd-9f6wgaeKFHIh0H3MM4Q2AX5-zBOiLhh_o3525EmGKesOPBMDmBErulsNRccvbdIzexS1gCE1mTjC8GTq8hPaz2zMYmWnxv2G-qSMT9a6nK1qcC8NVQGDL8GSh1NYYK5Q25B33cBN6q1DM3GSMFP43Ue1HTD35DR1KvI9LXi8J-adrkNWlzdx_dF0njp8UlLD7tKl2nuOLsUPbAF2gCJLT2jJbR5xux0lHEAzr5y9q1JENhC73jtuo8vv45zVlfMrlArfGyCewk8u_QTEar15nwwyXirTFjb6conZuO6xzciQXd3vlBbuElR5ZMyscuWzKAsdYdf4H0NRCva1FZSCRZWC7memfTp6NPp9WXrKAlhHKxcT0_]--></g></svg>