<svg width="264" height="72" viewBox="0 0 264 72" fill="none" xmlns="http://www.w3.org/2000/svg">
<path d="M76.5834 58.8913L76.5793 58.8914C76.4682 58.8963 76.3417 58.9019 76.1746 58.9082L76.1165 58.8324L76.1183 58.778C76.1429 58.0164 76.1746 57.0368 76.1746 55.0025C76.1746 53.5045 76.1746 51.8994 76.0601 50.5097L76.1165 50.4452C76.6836 50.3576 76.8014 50.3361 77.3783 50.2172L77.4463 50.2915C77.365 51.7151 77.365 53.1463 77.365 54.5686C77.365 56.945 77.3999 57.7683 77.4579 58.7997L77.3883 58.8666C77.0054 58.8728 76.8323 58.8804 76.5834 58.8913Z" fill="#A39C91"/>
<path d="M24.1561 58.9082C24.8045 58.8755 24.8492 58.8755 25.4627 58.8755L25.5324 58.7997C25.4627 57.801 25.4163 57 25.4163 54.8926C25.4163 52.9947 25.4279 52.3111 25.4627 51.2581L25.4047 51.1837C24.9216 51.2007 24.7835 51.2031 24.3646 51.2107L24.1229 51.215L24.0632 51.2911C24.12 51.9306 24.1228 52.177 24.1429 53.9759L24.1461 54.2639C23.6023 54.2862 23.1164 54.2981 22.0535 54.2981C21.4702 54.2981 21.1449 54.2909 20.7467 54.2821C20.6321 54.2796 20.5116 54.277 20.3771 54.2743C20.3771 53.0278 20.3935 52.2016 20.4056 51.5892L20.412 51.2581L20.3539 51.1837C19.9146 51.1995 19.7362 51.2027 19.3865 51.2091L19.0706 51.215L19.0025 51.2911L19.0089 51.4087C19.0413 52.0093 19.0706 52.5517 19.0706 53.9265C19.0706 57.2155 19.0589 57.7683 19.0141 58.8324L19.0838 58.9082C19.7189 58.8755 19.7536 58.8755 20.3888 58.8755L20.4468 58.7997C20.3888 57.9868 20.3539 57.2586 20.3672 55.1987C21.1631 55.1868 22.1563 55.1749 23.0584 55.1749C23.37 55.1749 23.5981 55.179 23.7872 55.1824C23.9211 55.1848 24.0355 55.1868 24.1461 55.1868C24.1561 56.3044 24.1229 57.6182 24.0881 58.8324L24.1561 58.9082Z" fill="#A39C91"/>
<path fill-rule="evenodd" clip-rule="evenodd" d="M32.0041 54.2104C32.0837 54.5151 32.0837 55.111 32.0837 55.5658V56.6403C32.0837 57.9672 32.095 58.1008 32.1526 58.7819L32.155 58.8101L32.0953 58.8666C31.7106 58.8719 31.5529 58.8794 31.3036 58.8913L31.3018 58.8914L31.2982 58.8916L31.0851 58.9015L30.9295 58.9082L30.8833 58.8428L30.8949 58.4535L30.8867 58.4595C30.6615 58.6249 30.1445 59.0048 29.2764 59.0048C28.1208 59.0048 27.3115 58.2677 27.3115 57.1932C27.3115 55.7412 28.6066 55.273 30.6859 55.0456L30.8833 55.0233C30.8833 54.7291 30.8833 54.524 30.7788 54.3516C30.6627 54.1554 30.3974 53.9488 29.8203 53.9488C29.0889 53.9488 28.576 54.1546 28.101 54.3452L28.0627 54.3605L27.9698 54.3085C27.9841 54.0219 27.9902 53.8778 27.995 53.764L27.9951 53.7618C27.9986 53.6786 28.0014 53.6107 28.0063 53.5149L28.0743 53.451C28.7209 53.234 29.3925 53.0928 30.074 53.0928C30.9295 53.0928 31.7621 53.3648 32.0041 54.2104ZM30.8949 57.639V55.8274L30.7904 55.8482L30.7886 55.8484C29.6219 56.0118 28.537 56.1638 28.537 57.1293C28.537 57.1843 28.537 58.1161 29.6346 58.1161C30.3349 58.1161 30.7483 57.7639 30.8858 57.6467L30.8949 57.639Z" fill="#A39C91"/>
<path d="M39.3198 53.2667C39.2966 54.09 39.285 54.8599 39.285 55.7412C39.285 57.0743 39.3198 57.8768 39.3431 58.3435C39.3431 58.4965 39.3547 58.6481 39.3663 58.7997L39.3198 58.8666C38.9051 58.8733 38.7488 58.8808 38.473 58.8941L38.4704 58.8943L38.3325 58.9009L38.1408 58.9097L38.0713 58.8428L38.0845 58.3881L38.0499 58.4116C37.7762 58.5977 37.1752 59.0063 36.2687 59.0063C35.8177 59.0063 35.3221 58.9097 34.9505 58.6363C34.2267 58.0837 34.213 57.1851 34.2002 56.3528L34.1994 56.3044V55.6312L34.1937 55.2465C34.176 54.0452 34.1731 53.8535 34.1414 53.3217L34.1994 53.2429L34.2724 53.2417C34.7538 53.2339 34.8713 53.232 35.3899 53.1909L35.4596 53.2667L35.4132 55.6416C35.4132 55.7346 35.412 55.8198 35.4108 55.9094C35.4081 56.1031 35.4052 56.3175 35.4132 56.673L35.4132 56.6749C35.4248 57.1319 35.4496 58.1042 36.6154 58.1042C37.2968 58.1042 37.7827 57.7475 38.0597 57.5409C38.0713 56.9554 38.0713 56.456 38.0713 55.8274C38.0713 54.3174 38.0597 54.0142 37.99 53.3083L38.0597 53.234L38.2379 53.2301C38.6284 53.2216 38.783 53.2183 39.2502 53.1909L39.3198 53.2667Z" fill="#A39C91"/>
<path d="M44.0731 58.671C44.0816 58.4332 44.085 58.3379 44.116 58.018L44.0364 57.9541C43.9088 57.9972 43.723 58.0522 43.4809 58.0522C42.9023 58.0522 42.7994 57.8025 42.7994 57.0104C42.7994 56.8573 42.7994 56.2405 42.7878 56.1097L42.811 54.09C43.2086 54.09 43.3772 54.0951 43.6049 54.1018L43.7734 54.1067C43.8572 54.109 43.953 54.1114 44.0696 54.1138L44.1276 54.0469C44.1276 53.6969 44.1381 53.5708 44.159 53.3184L44.1624 53.2771L44.1044 53.2102C43.5805 53.2291 43.3858 53.233 43.0847 53.239L42.821 53.2444C42.821 52.5361 42.8303 52.3483 42.8572 51.8044L42.8675 51.5947L42.7878 51.5412C42.2555 51.6943 42.1278 51.7255 41.6072 51.8444L41.5509 51.9202L41.5857 52.5399C41.5857 52.7673 41.5857 53.0051 41.5973 53.234C41.3409 53.241 41.1893 53.2386 41.0404 53.2363C40.967 53.2351 40.894 53.234 40.8096 53.234L40.7416 53.2979C40.7416 53.6457 40.7416 53.7333 40.7184 54.0796L40.7648 54.145C40.851 54.1426 40.9197 54.1402 40.9782 54.1379L41.0982 54.133C41.2415 54.1269 41.3399 54.1227 41.5973 54.1227L41.5741 56.511C41.5741 57.7906 41.5741 58.0522 41.7813 58.3673C42.1394 58.929 42.8675 58.929 43.1443 58.929C43.5738 58.929 43.7695 58.8859 44.0115 58.8324L44.0696 58.767L44.0731 58.671Z" fill="#A39C91"/>
<path fill-rule="evenodd" clip-rule="evenodd" d="M50.3113 57.4978C50.1605 57.6167 49.9068 57.8129 49.479 57.9749C49.1557 58.0834 48.8074 58.1384 48.4741 58.1384C48.1143 58.1384 47.456 58.0834 46.9817 57.5513C46.5888 57.1085 46.5556 56.5749 46.544 56.1959C48.4376 56.1841 48.7511 56.1841 50.5535 56.1959L50.633 56.1306C50.6446 55.652 50.6694 54.579 50.0112 53.8403C49.6631 53.451 49.0279 53.0928 48.1143 53.0928C46.6004 53.0928 45.307 54.0796 45.307 56.0979C45.307 57.9853 46.4959 59.0063 48.3912 59.0063C49.4024 59.0063 50.0238 58.7015 50.2316 58.5996L50.2417 58.5946L50.3113 58.5189C50.3329 58.0953 50.3445 57.9853 50.4026 57.5513L50.3113 57.4978ZM49.4441 55.3592C49.2541 55.3614 49.0841 55.3635 48.9249 55.3655C48.1942 55.3746 47.6913 55.3809 46.544 55.3711C46.6584 54.2862 47.4211 53.8745 48.0679 53.8745C48.5885 53.8745 49.0976 54.1242 49.328 54.7202C49.4139 54.9552 49.4307 55.1797 49.4421 55.3317L49.4441 55.3592Z" fill="#A39C91"/>
<path d="M61.2908 58.5809C61.3027 58.3794 61.3093 58.2688 61.3372 57.9868L61.2675 57.911C59.7752 57.9645 59.4187 57.9645 57.6727 57.9645L57.6671 57.5065C57.6582 56.8072 57.6533 56.4225 57.6727 55.3711C59.2429 55.3711 59.5348 55.3711 60.8729 55.4038L60.9442 55.328L60.9473 55.2334C60.9562 54.957 60.9601 54.8363 61.0005 54.4913L60.9442 54.417L60.4293 54.4248L60.4275 54.4248L60.3885 54.4256C59.3874 54.4406 58.89 54.448 57.6727 54.4378C57.6727 53.4395 57.6727 53.1253 57.7091 52.1268L58.0986 52.1295H58.1004C59.2777 52.1376 59.8132 52.1413 61.163 52.1803L61.2327 52.1045C61.2507 51.8021 61.2676 51.6571 61.2913 51.4552C61.2982 51.3962 61.3057 51.3323 61.314 51.2581L61.2443 51.1837C59.5093 51.1999 58.8887 51.2029 57.4822 51.2097L56.3908 51.215L56.3195 51.2911C56.4008 52.5385 56.4008 53.5803 56.4008 55.4038C56.4008 57.2242 56.3729 57.8678 56.3401 58.6232L56.3311 58.8324L56.3908 58.9082C56.941 58.903 57.3758 58.8984 57.7539 58.8943C58.8847 58.8822 59.5087 58.8755 61.1962 58.8755L61.2775 58.7997C61.2829 58.7132 61.2871 58.6428 61.2908 58.5809Z" fill="#A39C91"/>
<path d="M67.4162 57.584C67.404 57.7023 67.3943 57.7941 67.3859 57.8724C67.3615 58.1031 67.3493 58.2176 67.3233 58.5515L67.242 58.6273L67.1989 58.6467C66.8685 58.7955 66.4235 58.9959 65.647 58.9959C63.9026 58.9959 62.77 57.8114 62.77 56.1202C62.77 54.3947 63.8794 53.0943 65.6702 53.0943C66.3936 53.0943 66.914 53.3038 67.2195 53.4269L67.2536 53.4406L67.2984 53.5149C67.2536 53.9057 67.242 54.0469 67.2188 54.3724L67.1261 54.4155C66.7464 54.1569 66.3068 53.9919 65.8426 53.9919C64.8841 53.9919 64.0401 54.6875 64.0401 56.077C64.0401 57.5513 64.9306 58.0834 65.8326 58.0834C66.5944 58.0834 67.0727 57.7274 67.3022 57.5566L67.3233 57.5409L67.4162 57.584Z" fill="#A39C91"/>
<path fill-rule="evenodd" clip-rule="evenodd" d="M73.5989 53.8731C74.1279 54.4482 74.2803 55.2091 74.3035 55.9686C74.3035 56.3371 74.2803 56.6938 74.1992 57.0193C74.0731 57.5513 73.8293 57.9749 73.4479 58.3331C72.9405 58.8101 72.2574 58.9959 71.4499 58.9959C70.4086 58.9959 69.7486 58.6259 69.3805 58.2677C68.5946 57.5187 68.583 56.4129 68.583 56.0548C68.583 55.6431 68.6062 54.579 69.3805 53.8537C69.7038 53.5357 70.3738 53.0928 71.5294 53.0928C72.3139 53.0928 73.0914 53.3306 73.5989 53.8731ZM72.7781 57.4547C73.0434 56.9673 73.055 56.239 73.0434 56.0117C73.0434 55.7412 72.9969 55.0129 72.7085 54.5359C72.4879 54.1985 72.1181 53.9176 71.4732 53.9176C71.2526 53.9176 70.6042 53.9384 70.1996 54.5463C69.8896 54.9907 69.8531 55.6193 69.8531 56.0756C69.8531 56.511 69.8647 57.6063 70.7783 58.0418C70.9855 58.1384 71.2293 58.1815 71.4581 58.1815C71.8859 58.1815 72.4431 58.0507 72.7781 57.4547Z" fill="#A39C91"/>
<path fill-rule="evenodd" clip-rule="evenodd" d="M83.4223 57.9749C83.8501 57.8129 84.1039 57.6167 84.253 57.4978L84.3443 57.5513C84.2895 57.9853 84.2763 58.0953 84.253 58.5189L84.1834 58.5946L84.1754 58.5986C83.9713 58.6995 83.3507 59.0063 82.3345 59.0063C80.4394 59.0063 79.2504 57.9853 79.2504 56.0979C79.2504 54.0796 80.5437 53.0928 82.0577 53.0928C82.9713 53.0928 83.6064 53.451 83.9546 53.8403C84.6112 54.579 84.5897 55.652 84.5765 56.1306L84.4969 56.1959C82.6944 56.1841 82.381 56.1841 80.4875 56.1959C80.4991 56.5749 80.5321 57.1085 80.9251 57.5513C81.3995 58.0834 82.0577 58.1384 82.4174 58.1384C82.7509 58.1384 83.099 58.0834 83.4223 57.9749ZM82.8697 55.3654C83.028 55.3634 83.1971 55.3613 83.3858 55.3592L83.3844 55.3375C83.3746 55.1855 83.3599 54.9582 83.2714 54.7202C83.041 54.1242 82.5319 53.8745 82.0112 53.8745C81.3646 53.8745 80.6018 54.2862 80.4875 55.3711C81.6356 55.3809 82.1372 55.3746 82.8679 55.3655L82.8697 55.3654Z" fill="#A39C91"/>
<path d="M93.2572 54.5344L93.2761 54.5422C94.1164 54.8905 95.2222 55.3488 95.2222 56.728C95.2222 57.9437 94.2621 59.039 92.2508 59.039C91.0254 59.039 90.2395 58.6912 89.9625 58.5605L89.9162 58.4847C89.9512 58.1979 89.9664 58.0098 89.9868 57.757C89.9933 57.6756 90.0004 57.5876 90.0089 57.4874L90.125 57.4443L90.1607 57.4671C90.468 57.6634 91.1254 58.0834 92.1596 58.0834C93.3501 58.0834 93.8475 57.5082 93.8475 56.8573C93.8475 56.0979 93.1743 55.8066 92.4249 55.5331L91.8479 55.2953L91.8285 55.2869C91.0083 54.9298 89.9294 54.4601 89.9294 53.1463C89.9294 52.745 90.0437 52.3319 90.2859 52.0064C90.8182 51.2908 91.7783 51.0511 92.7135 51.0511C93.6271 51.0511 94.1808 51.2147 94.7944 51.4L94.8524 51.4862C94.8146 51.8117 94.8003 51.9749 94.779 52.2198L94.7595 52.4404L94.6667 52.4835C94.171 52.2457 93.6271 51.9856 92.7616 51.9856C91.8015 51.9856 91.1995 52.4077 91.1995 53.0497C91.1995 53.5372 91.5461 53.7646 91.7881 53.9057C91.939 53.9934 91.9838 54.0142 92.6803 54.2966L93.2572 54.5344Z" fill="#A39C91"/>
<path fill-rule="evenodd" clip-rule="evenodd" d="M98.191 53.1582L98.2723 53.2221L98.2491 53.6769C98.4811 53.5045 99.0366 53.0928 99.937 53.0928C101.404 53.0928 102.433 54.2208 102.433 55.7516C102.433 57.4339 101.242 58.8755 98.8046 58.8755C98.5856 58.8755 98.4464 58.8651 98.2855 58.8532C98.2945 60.0312 98.3144 60.3752 98.361 61.1832L98.3768 61.4585L98.3071 61.5224C97.9042 61.5343 97.4978 61.5447 97.0949 61.5566L97.037 61.4912C97.0601 60.8284 97.0816 60.1462 97.0816 59.039C97.0816 58.72 97.0788 58.401 97.0759 58.0819L97.0758 58.0782C97.0729 57.7579 97.07 57.4377 97.07 57.1174L97.0691 56.9605C97.0601 55.388 97.0557 54.6379 96.9192 53.4391L96.9789 53.3737C97.4171 53.3069 97.5924 53.2731 97.8907 53.2156L97.8964 53.2145L97.898 53.2142L97.9032 53.2132C97.9866 53.1972 98.0798 53.1792 98.191 53.1582ZM98.2491 56.1306C98.2491 56.7711 98.2607 57.4102 98.2723 58.0403C98.3203 58.0436 98.367 58.0481 98.4147 58.0527C98.5169 58.0627 98.6241 58.073 98.7598 58.073C100.284 58.073 101.162 57.162 101.162 55.8274C101.162 54.6994 100.527 54.0023 99.6021 54.0023C98.9786 54.0023 98.5415 54.2847 98.2744 54.4572L98.2723 54.4586L98.2714 54.4993C98.2601 55.0514 98.2491 55.591 98.2491 56.1306Z" fill="#A39C91"/>
<path d="M108.051 50.8231C107.831 50.8363 107.612 50.8363 107.391 50.8363C107.171 50.8363 106.963 50.8363 106.71 50.8231L106.638 50.8793C106.436 51.4445 106.18 52.0018 106.026 52.3353L105.975 52.4472C105.959 52.4817 105.945 52.5122 105.934 52.5385L105.982 52.6143C106.386 52.6143 106.514 52.6143 106.826 52.6261L106.905 52.5816C107.426 51.7894 107.53 51.6393 108.096 50.9123L108.051 50.8231Z" fill="#A39C91"/>
<path fill-rule="evenodd" clip-rule="evenodd" d="M108.976 57.4978C108.824 57.6167 108.57 57.8129 108.142 57.9749C107.819 58.0834 107.474 58.1384 107.138 58.1384C106.779 58.1384 106.121 58.0834 105.647 57.5513C105.252 57.1085 105.221 56.5749 105.206 56.1959C107.103 56.1841 107.415 56.1841 109.217 56.1959L109.3 56.1306L109.3 56.1169C109.308 55.6319 109.327 54.5735 108.673 53.8403C108.328 53.451 107.693 53.0928 106.779 53.0928C105.265 53.0928 103.97 54.0796 103.97 56.0979C103.97 57.9853 105.161 59.0063 107.056 59.0063C108.072 59.0063 108.695 58.6986 108.898 58.5981L108.905 58.5946L108.976 58.5189C108.998 58.0953 109.01 57.9853 109.066 57.5513L108.976 57.4978ZM108.108 55.3592C107.918 55.3614 107.749 55.3635 107.59 55.3655C106.859 55.3746 106.357 55.3809 105.206 55.3711C105.324 54.2862 106.086 53.8745 106.733 53.8745C107.252 53.8745 107.761 54.1242 107.991 54.7202C108.078 54.9516 108.094 55.1729 108.105 55.3247L108.108 55.3592Z" fill="#A39C91"/>
<path d="M115.375 57.83L115.401 57.584L115.308 57.5409L115.287 57.5566C115.057 57.7274 114.579 58.0834 113.817 58.0834C112.915 58.0834 112.026 57.5513 112.026 56.077C112.026 54.6875 112.87 53.9919 113.829 53.9919C114.291 53.9919 114.729 54.1569 115.112 54.4155L115.205 54.3724L115.21 54.3034C115.23 54.0253 115.24 53.8767 115.285 53.5149L115.237 53.4406L115.204 53.4275C114.9 53.3045 114.381 53.0943 113.655 53.0943C111.864 53.0943 110.755 54.3947 110.755 56.1202C110.755 57.8114 111.885 58.9959 113.632 58.9959C114.406 58.9959 114.851 58.7965 115.182 58.6478L115.228 58.6273L115.308 58.5515C115.337 58.1978 115.348 58.0903 115.375 57.83Z" fill="#A39C91"/>
<path d="M118.138 58.8666L118.048 58.8679C117.527 58.8756 117.417 58.8772 116.882 58.9082L116.822 58.8324L116.828 58.7335C116.86 58.1973 116.891 57.6885 116.891 56.5541C116.891 54.4809 116.857 54.0915 116.777 53.4495L116.833 53.3737L117.034 53.3433C117.389 53.2896 117.59 53.2594 118.082 53.1567L118.196 53.2236L118.194 53.2618C118.162 53.8137 118.127 54.404 118.127 55.7724C118.127 57.6667 118.149 58.0222 118.188 58.6672L118.196 58.7997L118.138 58.8666Z" fill="#A39C91"/>
<path d="M118.152 51.6482C117.561 51.672 117.434 51.6809 116.87 51.7359L116.8 51.672C116.81 51.5293 116.81 51.3778 116.81 51.2369C116.81 51.054 116.801 50.89 116.791 50.6906L116.789 50.6503L116.87 50.5858C117.388 50.5487 117.537 50.535 117.939 50.4979L118.152 50.4783L118.221 50.5428C118.21 50.9873 118.21 51.0964 118.221 51.5739L118.152 51.6482Z" fill="#A39C91"/>
<path fill-rule="evenodd" clip-rule="evenodd" d="M124.611 54.2104C124.692 54.5151 124.692 55.111 124.692 55.5658V56.6403C124.692 57.9596 124.703 58.0992 124.757 58.7703L124.76 58.8101L124.704 58.8666C124.319 58.8719 124.16 58.8794 123.909 58.8914C123.807 58.8962 123.69 58.9018 123.536 58.9082L123.49 58.8428L123.503 58.4535L123.496 58.4586C123.272 58.6236 122.753 59.0048 121.885 59.0048C120.729 59.0048 119.922 58.2677 119.922 57.1932C119.922 55.7412 121.215 55.273 123.294 55.0456L123.49 55.0233C123.49 54.7291 123.49 54.524 123.385 54.3516C123.271 54.1554 123.006 53.9488 122.427 53.9488C121.697 53.9488 121.186 54.1538 120.712 54.344L120.671 54.3605L120.58 54.3085L120.588 54.1188L120.593 53.9828L120.599 53.8256C120.604 53.7092 120.607 53.6341 120.613 53.5149L120.683 53.451C121.329 53.234 121.999 53.0928 122.681 53.0928C123.536 53.0928 124.37 53.3648 124.611 54.2104ZM123.503 57.639V55.8274L123.399 55.8482L123.397 55.8484C122.23 56.0118 121.145 56.1638 121.145 57.1293C121.145 57.1843 121.145 58.1161 122.243 58.1161C122.937 58.1161 123.348 57.7696 123.491 57.6496L123.503 57.639Z" fill="#A39C91"/>
<path d="M127.257 58.8915L127.059 58.9L126.855 58.9082L126.797 58.8324L126.802 58.6648V58.6633C126.825 57.9169 126.855 56.9363 126.855 55.0025C126.855 53.5046 126.855 51.8993 126.737 50.5097L126.797 50.4452C127.364 50.3576 127.478 50.3361 128.055 50.2172L128.123 50.2915C128.044 51.7151 128.044 53.1463 128.044 54.5686C128.044 56.945 128.078 57.7683 128.138 58.7997L128.068 58.8666C127.683 58.8728 127.508 58.8805 127.257 58.8915Z" fill="#A39C91"/>
<path d="M131.407 58.868L131.5 58.8666L131.558 58.7997L131.551 58.6915C131.509 58.0309 131.488 57.6902 131.488 55.7724C131.488 54.4228 131.522 53.83 131.554 53.2845L131.558 53.2236L131.443 53.1567C130.95 53.2594 130.75 53.2896 130.394 53.3434L130.194 53.3737L130.136 53.4495C130.218 54.0915 130.251 54.4809 130.251 56.5541C130.251 57.7314 130.219 58.2349 130.185 58.7945L130.182 58.8324L130.239 58.9082C130.776 58.8773 130.888 58.8756 131.407 58.868Z" fill="#A39C91"/>
<path d="M130.227 51.7359C130.797 51.6809 130.922 51.672 131.512 51.6482L131.583 51.5739C131.57 51.0964 131.57 50.9873 131.583 50.5428L131.512 50.4783L131.299 50.4979C130.896 50.535 130.747 50.5487 130.227 50.5858L130.15 50.6503L130.156 50.7971C130.163 50.9508 130.169 51.0876 130.169 51.2369C130.169 51.3776 130.169 51.5295 130.158 51.672L130.227 51.7359Z" fill="#A39C91"/>
<path d="M136.075 55.5777C136.54 55.7189 137.592 56.0548 137.592 57.2036C137.592 57.639 137.418 58.128 136.944 58.4847C136.331 58.9721 135.511 59.0063 135.094 59.0063C134.471 59.0063 133.95 58.8978 133.51 58.7343C133.475 58.7217 133.44 58.7086 133.405 58.6956L133.404 58.695L133.338 58.6704L133.28 58.5723C133.319 58.2037 133.324 58.1154 133.341 57.8116L133.35 57.6598L133.466 57.6286L133.468 57.6299C133.676 57.7808 134.183 58.1488 135.07 58.1488C135.984 58.1488 136.319 57.6717 136.319 57.3344C136.319 56.835 135.824 56.673 135.117 56.456L134.747 56.3371C134.273 56.1959 133.234 55.8824 133.234 54.7633C133.234 53.6457 134.273 53.0943 135.566 53.0943C136.409 53.0943 137.006 53.3134 137.222 53.3924L137.232 53.396L137.29 53.4718C137.277 53.5859 137.266 53.671 137.257 53.7438C137.235 53.9279 137.222 54.0332 137.199 54.3293L137.093 54.3724C136.803 54.2 136.355 53.9384 135.603 53.9384C135.442 53.9384 135.28 53.9503 135.106 53.9934C134.758 54.0811 134.471 54.307 134.471 54.6444C134.471 55.111 134.944 55.2522 135.661 55.4588L136.075 55.5777Z" fill="#A39C91"/>
<path d="M142.329 50.8363C142.55 50.8363 142.77 50.8363 142.988 50.8231L143.035 50.9123C142.467 51.6393 142.365 51.7894 141.844 52.5816L141.761 52.6261C141.452 52.6143 141.324 52.6143 140.92 52.6143L140.872 52.5385C140.895 52.4875 140.926 52.4203 140.963 52.3398C141.116 52.0068 141.373 51.4471 141.578 50.8793L141.649 50.8231C141.901 50.8363 142.11 50.8363 142.329 50.8363Z" fill="#A39C91"/>
<path fill-rule="evenodd" clip-rule="evenodd" d="M143.081 57.9749C143.507 57.8129 143.763 57.6167 143.912 57.4978L144.006 57.5513C143.948 57.9853 143.936 58.0953 143.912 58.5189L143.845 58.5946L143.833 58.6006C143.622 58.7035 143.003 59.0063 141.993 59.0063C140.1 59.0063 138.909 57.9853 138.909 56.0979C138.909 54.0796 140.203 53.0928 141.716 53.0928C142.629 53.0928 143.266 53.451 143.613 53.8403C144.272 54.5805 144.247 55.652 144.235 56.1306L144.156 56.1959C142.352 56.1841 142.041 56.1841 140.145 56.1959C140.155 56.5749 140.191 57.1085 140.582 57.5513C141.059 58.0834 141.716 58.1384 142.075 58.1384C142.41 58.1384 142.758 58.0834 143.081 57.9749ZM142.529 55.3654L142.532 55.3654C142.69 55.3634 142.858 55.3613 143.046 55.3592L143.044 55.3351C143.034 55.1831 143.019 54.957 142.931 54.7202C142.699 54.1242 142.19 53.8745 141.669 53.8745C141.023 53.8745 140.261 54.2862 140.145 55.3711C141.293 55.3809 141.795 55.3746 142.527 55.3655L142.529 55.3654Z" fill="#A39C91"/>
<path fill-rule="evenodd" clip-rule="evenodd" d="M150.696 57.4978C150.546 57.6167 150.293 57.8129 149.864 57.9749C149.54 58.0834 149.193 58.1384 148.86 58.1384C148.499 58.1384 147.842 58.0834 147.368 57.5513C146.975 57.1085 146.941 56.5749 146.929 56.1959C148.824 56.1841 149.137 56.1841 150.939 56.1959L151.02 56.1306L151.02 56.1265C151.03 55.646 151.053 54.5769 150.396 53.8403C150.049 53.451 149.412 53.0928 148.499 53.0928C146.986 53.0928 145.692 54.0796 145.692 56.0979C145.692 57.9853 146.883 59.0063 148.779 59.0063C149.782 59.0063 150.4 58.706 150.615 58.6019L150.63 58.5946L150.696 58.5189C150.719 58.0953 150.732 57.9853 150.79 57.5513L150.696 57.4978ZM149.311 55.3655C148.58 55.3746 148.078 55.3809 146.929 55.3711C147.045 54.2862 147.807 53.8745 148.453 53.8745C148.976 53.8745 149.483 54.1242 149.714 54.7202C149.799 54.9509 149.816 55.1715 149.827 55.3233L149.83 55.3592C149.641 55.3614 149.472 55.3635 149.313 55.3655H149.311Z" fill="#A39C91"/>
<path fill-rule="evenodd" clip-rule="evenodd" d="M34.9192 63.4904L34.9174 63.4708L34.9738 63.4039C35.564 63.3073 35.6785 63.285 36.1992 63.1765L36.2804 63.2434C36.1992 64.7519 36.1876 67.4419 36.1876 68.5283C36.1876 70.2091 36.234 71.0117 36.2804 71.7607L36.2224 71.8365C35.7884 71.8365 35.6243 71.8441 35.2567 71.8611L35.0451 71.8707L34.9622 71.8038L34.9855 71.4026L34.9642 71.4175C34.6844 71.6146 34.2131 71.9465 33.3919 71.9465C31.8531 71.9465 30.7903 70.8051 30.7903 69.1554C30.7903 67.9725 31.3226 67.2234 31.8066 66.8221C32.6508 66.1073 33.75 66.0761 34.3503 66.0761C34.5924 66.0761 34.7084 66.0761 35.0201 66.0969C35.0334 64.7659 34.9751 64.1145 34.9192 63.4904ZM33.6804 70.9805C34.3852 70.9805 34.8129 70.6327 34.9738 70.5019C34.9971 69.0796 34.9971 68.7542 34.9855 66.9752C34.917 66.9716 34.8555 66.9665 34.7941 66.9614C34.6798 66.9519 34.5658 66.9425 34.4084 66.9425C34.0502 66.9425 33.2874 66.9648 32.7319 67.4523C32.4783 67.6797 32.0621 68.1909 32.0621 69.1554C32.0621 69.7737 32.246 70.221 32.4882 70.4915C32.6971 70.7204 33.0786 70.9805 33.6804 70.9805Z" fill="#A39C91"/>
<path fill-rule="evenodd" clip-rule="evenodd" d="M43.065 70.4573C42.914 70.5777 42.6604 70.7739 42.2326 70.9359C41.9075 71.0444 41.5626 71.0994 41.2261 71.0994C40.8696 71.0994 40.2096 71.0444 39.737 70.5138C39.344 70.068 39.3092 69.5359 39.296 69.1569C41.1912 69.145 41.5046 69.145 43.307 69.1569L43.3883 69.0915C43.3999 68.6145 43.4231 67.54 42.7631 66.8013C42.4182 66.412 41.7816 66.0538 40.8696 66.0538C39.3556 66.0538 38.0607 67.0421 38.0607 69.0588C38.0607 70.9463 39.2512 71.9673 41.1464 71.9673C42.1619 71.9673 42.7841 71.66 42.9879 71.5593L42.9953 71.5556L43.065 71.4798C43.0882 71.0563 43.0998 70.9463 43.1562 70.5138L43.065 70.4573ZM42.1978 68.3202L41.737 68.3256C40.9732 68.3349 40.4757 68.3409 39.296 68.3321C39.4121 67.2472 40.1748 66.8355 40.8231 66.8355C41.342 66.8355 41.8511 67.0852 42.0817 67.6797C42.1677 67.9124 42.184 68.1337 42.1952 68.2856L42.1978 68.3202Z" fill="#A39C91"/>
<path d="M52.0746 67.4996L52.068 67.4969L51.4893 67.2576C50.7961 66.9737 50.7497 66.9544 50.5989 66.8667C50.3567 66.727 50.0102 66.4982 50.0102 66.0092C50.0102 65.3701 50.6105 64.9466 51.5706 64.9466C52.4361 64.9466 52.98 65.2052 53.4775 65.4459L53.5702 65.4028L53.5859 65.2249C53.6098 64.9531 53.6241 64.7903 53.6614 64.4472L53.605 64.3595C52.9916 64.1767 52.4361 64.0133 51.5241 64.0133C50.5889 64.0133 49.6288 64.2525 49.0965 64.9674C48.8562 65.2929 48.7384 65.706 48.7384 66.1088C48.7384 67.4179 49.8152 67.8885 50.6316 68.2453L50.6569 68.2563L51.2339 68.4941C51.9867 68.7661 52.6566 69.0603 52.6566 69.8183C52.6566 70.4692 52.1591 71.0444 50.9703 71.0444C49.9335 71.0444 49.2738 70.6209 48.9689 70.4251L48.9356 70.4038L48.8197 70.4484C48.8107 70.5543 48.8033 70.6465 48.7965 70.7317C48.7767 70.9776 48.7617 71.1637 48.7284 71.4442L48.7732 71.5215C49.0517 71.6537 49.8377 72 51.0615 72C53.0727 72 54.0328 70.9032 54.0328 69.6875C54.0328 68.303 52.9178 67.8455 52.0746 67.4996Z" fill="#A39C91"/>
<path d="M60.9323 66.2277C60.9091 67.051 60.8958 67.8223 60.8958 68.7007C60.8958 70.0353 60.9323 70.8378 60.9555 71.3045C60.9555 71.4561 60.9671 71.6106 60.9788 71.7607L60.9323 71.8261C60.5339 71.8336 60.3734 71.841 60.1188 71.8529C60.0184 71.8576 59.9033 71.8629 59.7533 71.8692L59.6836 71.8038L59.6952 71.349L59.6639 71.3704C59.3933 71.5555 58.7911 71.9673 57.8812 71.9673C57.4318 71.9673 56.9328 71.8692 56.563 71.5987C55.8359 71.0434 55.8237 70.1418 55.8125 69.3079L55.8119 69.2654V68.5922L55.8073 68.2542C55.7901 67.0111 55.7875 66.8212 55.7539 66.2812L55.8119 66.2054L55.9206 66.203C56.3707 66.1933 56.4971 66.1905 57.0024 66.1519L57.0721 66.2277L57.0256 68.6026L57.0255 68.6626L57.0247 68.7525L57.0232 68.8694C57.0206 69.0629 57.0177 69.2774 57.0256 69.634C57.0356 70.0903 57.0605 71.0667 58.2277 71.0667C58.9093 71.0667 59.3952 70.7085 59.672 70.5019C59.6836 69.9167 59.6836 69.4175 59.6836 68.7878C59.6836 67.2793 59.672 66.9737 59.6023 66.2708L59.672 66.1935L59.7928 66.1915C60.2266 66.1844 60.375 66.1819 60.8627 66.1519L60.9323 66.2277Z" fill="#A39C91"/>
<path d="M64.2129 71.8289L64.352 71.8261L64.41 71.7607L64.4034 71.6526C64.3629 70.9918 64.342 70.6499 64.342 68.7319C64.342 67.3334 64.3752 66.7478 64.41 66.1831L64.2956 66.1177C63.7591 66.2279 63.5718 66.2564 63.1511 66.3203L63.047 66.3362L62.9873 66.412C63.0702 67.051 63.1033 67.4434 63.1033 69.5136C63.1033 70.6756 63.0726 71.1815 63.0392 71.7317L63.0354 71.7934L63.0917 71.8692C63.6119 71.8406 63.7331 71.8382 64.2129 71.8289Z" fill="#A39C91"/>
<path d="M63.0801 64.6984C63.6472 64.6419 63.7749 64.6315 64.3652 64.6092L64.4333 64.5349C64.4216 64.0564 64.4216 63.9479 64.4333 63.5035L64.3652 63.4381L64.3155 63.4428C63.7824 63.4937 63.6655 63.5048 63.0801 63.5466L63.0006 63.612C63.0034 63.6724 63.0064 63.7295 63.0093 63.7846C63.0169 63.9275 63.0238 64.0575 63.0238 64.199C63.0238 64.3373 63.0238 64.4903 63.0106 64.6315L63.0801 64.6984Z" fill="#A39C91"/>
<path d="M68.9305 68.5387C69.3915 68.6784 70.4443 69.0143 70.4443 70.1646C70.4443 70.6 70.2703 71.089 69.7961 71.4457C69.1825 71.9346 68.3618 71.9658 67.9472 71.9658C67.3237 71.9658 66.803 71.8573 66.3636 71.6953L66.1913 71.6314L66.1314 71.5333C66.1749 71.1514 66.1792 71.0704 66.1966 70.7399L66.2029 70.6223L66.3172 70.5881L66.3191 70.5895C66.5293 70.742 67.0363 71.1098 67.9257 71.1098C68.8377 71.1098 69.1726 70.6312 69.1726 70.2953C69.1726 69.7975 68.6751 69.6325 67.9705 69.4155L67.6006 69.2981C67.1281 69.1569 66.0868 68.8404 66.0868 67.7243C66.0868 66.6067 67.1281 66.0538 68.4215 66.0538C69.2536 66.0538 69.8443 66.2689 70.0681 66.3504L70.0862 66.357L70.1426 66.4328L70.1276 66.5613L70.114 66.6752C70.0897 66.8782 70.0776 66.9797 70.0514 67.2888L69.9469 67.3334C69.6584 67.1595 69.2074 66.8994 68.4563 66.8994C68.2938 66.8994 68.1329 66.9113 67.9588 66.9529C67.6122 67.0406 67.3237 67.2695 67.3237 67.6054C67.3237 68.0705 67.7963 68.2132 68.5143 68.4183L68.9305 68.5387Z" fill="#A39C91"/>
<path d="M76.0128 70.1646C76.0128 69.0143 74.9615 68.6784 74.5005 68.5387L74.0827 68.4183C73.368 68.2132 72.8937 68.0705 72.8937 67.6054C72.8937 67.2695 73.1823 67.0406 73.5289 66.9529C73.703 66.9113 73.8638 66.8994 74.0263 66.8994C74.7758 66.8994 75.2284 67.1595 75.517 67.3334L75.6215 67.2888C75.6476 66.98 75.6597 66.8784 75.6839 66.6757L75.6842 66.6739L75.6846 66.6705C75.6924 66.6052 75.7014 66.5293 75.7126 66.4328L75.6562 66.357L75.6382 66.3504C75.4143 66.2689 74.8236 66.0538 73.9915 66.0538C72.6965 66.0538 71.6568 66.6067 71.6568 67.7243C71.6568 68.8404 72.6965 69.1569 73.1724 69.2981L73.5405 69.4155C74.2451 69.6325 74.7426 69.7975 74.7426 70.2953C74.7426 70.6312 74.406 71.1098 73.494 71.1098C72.6036 71.1098 72.0962 70.7397 71.889 70.5881L71.7729 70.6223L71.7663 70.7469C71.7492 71.0715 71.7448 71.1541 71.7032 71.5333L71.7613 71.6314L71.8648 71.6696L71.9353 71.6953C72.3731 71.8573 72.8937 71.9658 73.5189 71.9658C73.9318 71.9658 74.7542 71.9346 75.3645 71.4457C75.842 71.089 76.0128 70.6 76.0128 70.1646Z" fill="#A39C91"/>
<path fill-rule="evenodd" clip-rule="evenodd" d="M82.3361 70.4573C82.1852 70.5777 81.9315 70.7739 81.5037 70.9359C81.1803 71.0444 80.8321 71.0994 80.4989 71.0994C80.139 71.0994 79.4807 71.0444 79.0065 70.5138C78.6152 70.068 78.5804 69.5359 78.5687 69.1569C80.4624 69.145 80.7757 69.145 82.5781 69.1569L82.6578 69.0915C82.671 68.6145 82.6942 67.54 82.0359 66.8013C81.6877 66.412 81.0527 66.0538 80.139 66.0538C78.6268 66.0538 77.3318 67.0421 77.3318 69.0588C77.3318 70.9463 78.5207 71.9673 80.416 71.9673C81.4316 71.9673 82.0519 71.6608 82.2565 71.5597L82.2648 71.5556L82.3361 71.4798C82.3577 71.0563 82.3709 70.9463 82.4272 70.5138L82.3361 70.4573ZM81.4689 68.3202L81.0079 68.3256C80.2449 68.3349 79.7463 68.3409 78.5687 68.3321C78.6849 67.2472 79.4459 66.8355 80.0943 66.8355C80.6132 66.8355 81.1222 67.0852 81.3528 67.6797C81.4389 67.9125 81.4552 68.1338 81.4663 68.2856L81.4689 68.3202Z" fill="#A39C91"/>
<path fill-rule="evenodd" clip-rule="evenodd" d="M93.0258 66.8355C93.5581 67.4107 93.7074 68.1686 93.7306 68.9295C93.7306 69.2981 93.7074 69.6563 93.6278 69.9818C93.4984 70.5138 93.2581 70.9359 92.8751 71.2941C92.366 71.7711 91.6844 71.9554 90.8753 71.9554C89.8372 71.9554 89.1774 71.5868 88.8075 71.2302C88.0232 70.4811 88.0099 69.3739 88.0099 69.0157C88.0099 68.6041 88.0332 67.5415 88.8075 66.8132C89.1309 66.4982 89.8008 66.0538 90.9566 66.0538C91.7425 66.0538 92.5184 66.2916 93.0258 66.8355ZM92.2051 70.4142C92.4721 69.9268 92.4819 69.2 92.4721 68.9726C92.4721 68.7007 92.4241 67.9739 92.1371 67.4969C91.9166 67.1595 91.5469 66.8786 90.9001 66.8786C90.6795 66.8786 90.0329 66.8994 89.6284 67.5073C89.3165 67.9516 89.2801 68.5818 89.2801 69.0366C89.2801 69.4705 89.2917 70.5673 90.2053 71.0013C90.4143 71.0994 90.6563 71.1425 90.8885 71.1425C91.3147 71.1425 91.8702 71.0117 92.2051 70.4142Z" fill="#A39C91"/>
<path d="M99.9136 70.545C99.8976 70.711 99.8857 70.825 99.8754 70.9229C99.8568 71.1003 99.8437 71.2253 99.8223 71.5125L99.7412 71.5868L99.7036 71.6038C99.371 71.7541 98.9254 71.9554 98.146 71.9554C96.4016 71.9554 95.2674 70.7739 95.2674 69.0796C95.2674 67.3557 96.3768 66.0538 98.1676 66.0538C98.884 66.0538 99.4007 66.2598 99.7077 66.3821L99.7528 66.4001L99.7975 66.4773C99.7528 66.8667 99.7412 67.0094 99.718 67.3349L99.6251 67.378C99.2454 67.1164 98.8043 66.9544 98.3434 66.9544C97.3833 66.9544 96.541 67.6485 96.541 69.0366C96.541 70.5123 97.4297 71.0444 98.3301 71.0444C99.0915 71.0444 99.5713 70.6873 99.8009 70.5163L99.8223 70.5004L99.9136 70.545Z" fill="#A39C91"/>
<path d="M105.707 70.7549L105.729 70.545L105.635 70.5004L105.616 70.5142C105.389 70.6843 104.909 71.0444 104.144 71.0444C103.242 71.0444 102.353 70.5123 102.353 69.0366C102.353 67.6485 103.197 66.9544 104.155 66.9544C104.618 66.9544 105.057 67.1164 105.437 67.378L105.53 67.3349L105.534 67.2862C105.556 66.9941 105.567 66.8468 105.611 66.4773L105.565 66.4001L105.518 66.3816C105.211 66.2591 104.697 66.0538 103.983 66.0538C102.192 66.0538 101.081 67.3557 101.081 69.0796C101.081 70.7739 102.215 71.9554 103.96 71.9554C104.743 71.9554 105.192 71.7516 105.524 71.601L105.555 71.5868L105.635 71.5125C105.665 71.1447 105.676 71.0429 105.706 70.7566L105.707 70.7549Z" fill="#A39C91"/>
<path d="M108.467 71.8261L108.328 71.8288C107.849 71.8382 107.726 71.8406 107.206 71.8692L107.148 71.7934L107.15 71.7601C107.186 71.1987 107.218 70.6956 107.218 69.5136C107.218 67.4434 107.185 67.051 107.104 66.412L107.162 66.3362L107.269 66.3198C107.685 66.2563 107.874 66.2275 108.408 66.1177L108.523 66.1831L108.521 66.2233C108.488 66.776 108.453 67.3666 108.453 68.7319C108.453 70.6275 108.475 70.9835 108.515 71.6296L108.523 71.7607L108.467 71.8261Z" fill="#A39C91"/>
<path d="M108.478 64.6092C107.889 64.6315 107.762 64.6419 107.196 64.6984L107.125 64.6315C107.137 64.4903 107.137 64.3373 107.137 64.199C107.137 64.0482 107.13 63.9106 107.122 63.7563L107.115 63.612L107.196 63.5466C107.782 63.5044 107.896 63.4935 108.442 63.4415L108.444 63.4414L108.478 63.4381L108.548 63.5035C108.536 63.9479 108.536 64.0564 108.548 64.5349L108.478 64.6092Z" fill="#A39C91"/>
<path fill-rule="evenodd" clip-rule="evenodd" d="M114.523 66.0969C114.534 64.7519 114.478 64.101 114.42 63.4708L114.478 63.4039C115.066 63.3073 115.183 63.285 115.702 63.1765L115.783 63.2434C115.702 64.7519 115.69 67.4419 115.69 68.5283C115.69 70.2091 115.735 71.0117 115.783 71.7607L115.725 71.8365C115.291 71.8365 115.127 71.844 114.761 71.8609L114.546 71.8707L114.464 71.8038L114.489 71.4026L114.466 71.4192C114.184 71.6164 113.713 71.9465 112.893 71.9465C111.354 71.9465 110.293 70.8051 110.293 69.1554C110.293 67.9725 110.825 67.2234 111.309 66.8221C112.151 66.1073 113.251 66.0761 113.853 66.0761C114.096 66.0761 114.211 66.0761 114.523 66.0969ZM114.471 70.5076L114.478 70.5019C114.498 69.0796 114.498 68.7542 114.489 66.9752C114.42 66.9716 114.358 66.9665 114.297 66.9614C114.182 66.9519 114.067 66.9425 113.909 66.9425C113.551 66.9425 112.79 66.9648 112.234 67.4523C111.981 67.6797 111.563 68.1909 111.563 69.1554C111.563 69.7737 111.75 70.221 111.99 70.4915C112.199 70.7204 112.581 70.9805 113.183 70.9805C113.877 70.9805 114.301 70.6425 114.471 70.5076Z" fill="#A39C91"/>
<path fill-rule="evenodd" clip-rule="evenodd" d="M122.567 70.4573C122.416 70.5777 122.163 70.7739 121.735 70.9359C121.41 71.0444 121.063 71.0994 120.73 71.0994C120.37 71.0994 119.712 71.0444 119.239 70.5138C118.845 70.068 118.81 69.5359 118.798 69.1569C120.693 69.145 121.007 69.145 122.808 69.1569L122.889 69.0915C122.9 68.6145 122.925 67.54 122.265 66.8013C121.919 66.412 121.284 66.0538 120.37 66.0538C118.856 66.0538 117.561 67.0421 117.561 69.0588C117.561 70.9463 118.752 71.9673 120.649 71.9673C121.663 71.9673 122.285 71.6596 122.489 71.5591L122.496 71.5556L122.567 71.4798C122.589 71.0563 122.6 70.9463 122.658 70.5138L122.567 70.4573ZM121.7 68.3202L121.239 68.3256C120.475 68.3349 119.978 68.3409 118.798 68.3321C118.916 67.2472 119.677 66.8355 120.325 66.8355C120.844 66.8355 121.353 67.0852 121.586 67.6797C121.67 67.9158 121.687 68.1401 121.698 68.2921L121.7 68.3202Z" fill="#A39C91"/>
<path d="M129.66 71.8284L129.767 71.8261L129.837 71.7607C129.801 71.3592 129.788 70.8855 129.757 69.6847L129.755 69.5924V68.3202C129.743 67.6485 129.733 67.323 129.581 66.9975C129.456 66.7047 129.21 66.4551 128.912 66.2916C128.6 66.1296 128.242 66.0865 127.953 66.0865C126.954 66.0865 126.241 66.5479 125.934 66.747L125.919 66.7568L125.93 66.1935L125.847 66.1177L125.481 66.184C125.212 66.2329 125.042 66.2639 124.622 66.3362L124.554 66.412L124.563 66.5188C124.62 67.2298 124.693 68.1459 124.693 69.796C124.693 70.3605 124.682 70.8173 124.671 71.2498C124.666 71.4333 124.662 71.6124 124.658 71.7934L124.715 71.8692C125.221 71.8408 125.343 71.8383 125.79 71.829L125.93 71.8261L125.998 71.7607C125.919 70.49 125.895 69.5047 125.905 67.6173C126.217 67.3869 126.749 67.0079 127.444 67.0079C127.605 67.0079 128.263 67.0079 128.482 67.8327C128.542 68.0616 128.554 68.1686 128.554 69.8391C128.554 70.3711 128.554 70.9032 128.542 71.4338C128.542 71.4951 128.539 71.5556 128.536 71.6158C128.533 71.6752 128.53 71.7343 128.53 71.7934L128.61 71.8692C129.106 71.8401 129.199 71.8382 129.66 71.8284Z" fill="#A39C91"/>
<path d="M134.508 71.6579L134.506 71.7265L134.447 71.7934L134.444 71.7941C134.202 71.8473 134.009 71.89 133.58 71.89C133.302 71.89 132.574 71.89 132.216 71.3268C132.009 71.0132 132.009 70.7516 132.009 69.4705L132.032 67.0852C131.768 67.0852 131.671 67.089 131.52 67.095C131.439 67.0981 131.343 67.1019 131.199 67.106L131.153 67.0421C131.175 66.6928 131.175 66.6067 131.175 66.2604L131.245 66.1935C131.329 66.1935 131.402 66.1948 131.475 66.1961C131.625 66.1988 131.778 66.2015 132.032 66.1935C132.021 65.9661 132.021 65.7283 132.021 65.4994C132.009 65.2929 131.997 65.0878 131.983 64.8812L132.041 64.8054C132.564 64.6865 132.69 64.6538 133.22 64.5007L133.302 64.5557L133.291 64.7999C133.267 65.3176 133.257 65.5123 133.257 66.2054C133.408 66.2017 133.525 66.1991 133.635 66.1967L133.641 66.1966C133.881 66.1914 134.089 66.1869 134.539 66.1727L134.599 66.2366L134.592 66.3247C134.573 66.5486 134.563 66.68 134.563 67.0079L134.506 67.0733C134.398 67.0711 134.307 67.0689 134.227 67.0668L134.059 67.0623C133.821 67.0557 133.654 67.051 133.246 67.051L133.22 69.0693C133.234 69.2 133.234 69.8183 133.234 69.9699C133.234 70.762 133.338 71.0132 133.915 71.0132C134.16 71.0132 134.344 70.9582 134.471 70.9151L134.551 70.9805C134.518 71.3094 134.515 71.4009 134.508 71.6579Z" fill="#A39C91"/>
<path fill-rule="evenodd" clip-rule="evenodd" d="M140.375 67.1714C140.457 67.4746 140.457 68.072 140.457 68.5283V69.6013C140.457 70.94 140.468 71.0653 140.525 71.7605L140.526 71.7726L140.468 71.8261C140.085 71.8334 139.928 71.8408 139.681 71.8522L139.52 71.8596L139.299 71.8692L139.255 71.8038L139.266 71.413L139.256 71.4205C139.03 71.5868 138.513 71.9673 137.65 71.9673C136.492 71.9673 135.682 71.2287 135.682 70.1557C135.682 68.6992 136.979 68.234 139.06 68.0051L139.255 67.9858C139.255 67.6916 139.255 67.485 139.15 67.3126C139.034 67.1164 138.769 66.9098 138.19 66.9098C137.463 66.9098 136.954 67.1137 136.48 67.3036L136.435 67.3215L136.343 67.268C136.352 67.0528 136.357 66.9181 136.361 66.8163C136.366 66.6833 136.369 66.6052 136.376 66.4773L136.446 66.412C137.093 66.195 137.765 66.0538 138.445 66.0538C139.299 66.0538 140.133 66.3228 140.375 67.1714ZM139.266 70.6V68.7869L139.164 68.8092C137.994 68.9726 136.909 69.1243 136.909 70.0903C136.909 70.1438 136.909 71.0786 138.007 71.0786C138.704 71.0786 139.117 70.7267 139.256 70.6086L139.266 70.6Z" fill="#A39C91"/>
<path d="M143.832 71.8261C143.45 71.8343 143.276 71.8417 143.029 71.8524C142.969 71.8549 142.904 71.8577 142.832 71.8607C142.767 71.8633 142.697 71.8662 142.617 71.8692L142.561 71.7934L142.563 71.7106C142.587 70.9528 142.617 69.9718 142.617 67.9635C142.617 66.4656 142.617 64.8602 142.502 63.4693L142.561 63.4054C143.126 63.3177 143.242 63.2984 143.821 63.178L143.89 63.2538C143.809 64.6746 143.809 66.1073 143.809 67.5296C143.809 69.906 143.842 70.7308 143.902 71.7607L143.832 71.8261Z" fill="#A39C91"/>
<path fill-rule="evenodd" clip-rule="evenodd" d="M149.864 70.9359C150.293 70.7739 150.546 70.5777 150.696 70.4573L150.79 70.5138C150.732 70.9463 150.719 71.0563 150.696 71.4798L150.63 71.5556L150.615 71.5628C150.4 71.667 149.782 71.9673 148.779 71.9673C146.883 71.9673 145.692 70.9463 145.692 69.0588C145.692 67.0421 146.986 66.0538 148.499 66.0538C149.412 66.0538 150.049 66.412 150.396 66.8013C151.053 67.538 151.03 68.6087 151.02 69.0877L151.02 69.0915L150.939 69.1569C149.137 69.145 148.824 69.145 146.929 69.1569C146.941 69.5359 146.975 70.068 147.368 70.5138C147.842 71.0444 148.499 71.0994 148.86 71.0994C149.193 71.0994 149.54 71.0444 149.864 70.9359ZM149.369 68.3256C149.512 68.3239 149.663 68.3221 149.83 68.3202C149.829 68.3087 149.828 68.2968 149.827 68.2843C149.816 68.1325 149.799 67.9118 149.714 67.6797C149.483 67.0852 148.976 66.8355 148.453 66.8355C147.807 66.8355 147.045 67.2472 146.929 68.3321C148.109 68.3409 148.606 68.3349 149.369 68.3256Z" fill="#A39C91"/>
<path d="M30.4023 6.54887C30.3896 7.47627 30.3768 8.31122 30.3647 9.09546C30.3297 11.379 30.3012 13.2326 30.3012 15.6868C30.3012 23.6001 30.452 31.4672 30.8533 39.3788L30.603 39.6614C26.5017 39.617 25.4183 39.658 21.9938 39.7877L21.5726 39.8037L21.3222 39.5194C21.5726 32.8803 21.5726 31.325 21.4732 24.967C19.4651 24.9191 17.4587 24.8727 15.4524 24.8727C13.4958 24.8727 11.6386 24.9191 9.43164 25.0133C9.48135 31.8423 9.53107 33.5397 9.83293 39.3788L9.58257 39.6614C5.38008 39.6174 4.35952 39.6572 1.1104 39.7839L0.601943 39.8037L0.351581 39.5194C0.374992 38.5885 0.398502 37.7488 0.420767 36.9536C0.493065 34.3716 0.552228 32.2585 0.552228 29.0162C0.552228 17.392 0.253234 11.5973 0.00358573 6.75881L0 6.68932L0.301864 6.40679C4.6661 6.40679 5.41719 6.40678 9.28071 6.26634L9.53107 6.54887L9.43164 18.984C10.3096 18.984 11.2 18.9956 12.0904 19.0072L12.093 19.0073C12.9826 19.0188 13.8722 19.0304 14.7494 19.0304C17.0077 19.0304 19.2147 18.984 21.4217 18.9362L21.4162 18.3167C21.3715 13.2679 21.3585 11.8093 21.0205 6.68932L21.2725 6.40679C25.4858 6.40679 26.1375 6.40678 30.1519 6.26634L30.4023 6.54887Z" fill="#0072A3"/>
<path fill-rule="evenodd" clip-rule="evenodd" d="M59.4908 32.6917C57.5839 33.6338 55.3254 34.7163 51.6643 34.7163C48.6548 34.7163 46.5969 33.8222 45.393 32.1249C44.7002 31.215 44.5186 30.3446 44.3376 29.4772C44.322 29.4025 44.3063 29.3271 44.2904 29.2524L60.4957 28.9697L60.7957 28.6408L60.7955 28.6294C60.7459 26.3259 60.6951 23.973 59.9948 21.6217C58.2372 16.0635 54.3737 14.933 52.6691 14.5563C51.4138 14.2274 50.2598 14.1332 49.1074 14.1332C41.2295 14.1332 36.0113 18.9839 36.0113 27.1335C36.0113 29.3466 36.4142 31.6537 37.215 33.3032C40.1268 39.6613 46.9501 40.2265 50.5617 40.2265C54.6411 40.2265 56.4586 39.5491 59.0306 38.5904L59.1907 38.5307L59.4908 38.1556L59.8424 32.8338L59.4908 32.6917ZM44.2904 24.2594C44.4397 22.7985 44.7912 20.8217 46.6981 19.6913C47.2999 19.3144 48.0047 19.1723 48.7045 19.1723C50.361 19.1723 51.3625 19.9738 51.9163 20.8217C52.6177 21.858 52.6691 22.9868 52.6691 24.0709L44.2904 24.2594Z" fill="#0072A3"/>
<path d="M80.6939 24.271L80.6614 24.2594L78.2041 23.4115C76.4979 22.8463 75.1432 22.329 75.1432 21.0085C75.1432 20.445 75.5445 18.8913 78.6567 18.8913C81.6429 18.8913 83.5785 20.0567 84.8351 20.8132C84.8659 20.8318 84.8963 20.8501 84.9263 20.8681L85.3789 20.7275L85.8796 15.5924L85.6276 15.3099C85.5533 15.2906 85.4792 15.2713 85.4054 15.252C83.1404 14.6617 81.1123 14.1332 77.9521 14.1332C75.4962 14.1332 70.5783 14.3216 67.9699 17.8535C67.3166 18.7012 66.6152 20.1144 66.6152 21.9985C66.6152 27.0393 70.7788 28.5466 73.1367 29.3928L75.0436 30.0539C76.3966 30.477 78.6054 31.1844 78.6054 32.8801C78.6054 34.0569 77.4512 35.3295 74.6423 35.3295C73.2379 35.3295 71.1801 34.9048 69.3247 34.0105C68.5539 33.6264 68.1493 33.3207 67.5234 32.8477C67.4572 32.7977 67.3885 32.7458 67.3166 32.6917L66.8672 32.8801C66.7682 35.2409 66.72 35.8068 66.5369 37.9534L66.5158 38.2019L66.7645 38.625L66.8958 38.6703C69.2993 39.5011 71.398 40.2265 74.9922 40.2265C78.806 40.2265 86.3308 39.5671 87.2328 32.8338C87.2858 32.4555 87.2858 32.125 87.2858 31.7962C87.2858 26.635 83.4525 25.2602 80.6939 24.271Z" fill="#0072A3"/>
<path fill-rule="evenodd" clip-rule="evenodd" d="M169.905 3.48735L153.528 36.4297C152.244 39.0444 153.016 43.0389 155.966 44.4735C157.201 45.0784 158.687 45.1364 160.147 44.6355C161.789 44.0785 163.183 42.8952 163.878 41.4822L180.255 8.5414C181.536 5.9284 180.767 1.93385 177.82 0.494324C174.892 -0.932113 171.16 0.932303 169.905 3.48735ZM156.938 42.4937C155.236 41.6623 154.732 39.0014 155.515 37.4032L171.892 4.46079C172.681 2.86271 175.115 1.63468 176.848 2.47585C178.027 3.051 178.631 4.50554 178.631 5.87564C178.631 6.48542 178.51 7.07543 178.268 7.56632L161.891 40.5103C161.454 41.3995 160.51 42.1813 159.431 42.5482C158.527 42.8555 157.643 42.8358 156.938 42.4937Z" fill="#A39C91"/>
<path d="M123.773 32.2337C123.773 27.2408 119.208 25.7798 117.202 25.1682L115.398 24.6494C112.285 23.7551 110.229 23.1437 110.229 21.1158C110.229 19.6564 111.483 18.6681 112.987 18.2912C113.739 18.1029 114.442 18.0549 115.144 18.0549C118.405 18.0549 120.362 19.1854 121.617 19.9391L122.067 19.7506C122.173 18.5002 122.231 18.0313 122.324 17.2684C122.364 16.9393 122.411 16.5551 122.471 16.0303L122.219 15.6997L122.141 15.6713C121.172 15.3174 118.607 14.3809 114.995 14.3809C109.375 14.3809 104.86 16.7839 104.86 21.6364C104.86 26.4872 109.375 27.8524 111.433 28.4654L113.038 28.9828C116.099 29.9265 118.256 30.6323 118.256 32.799C118.256 34.2583 116.8 36.3309 112.837 36.3309C108.974 36.3309 106.767 34.7294 105.863 34.0716L105.362 34.2121L105.333 34.7696C105.259 36.164 105.239 36.53 105.061 38.1687L105.311 38.5935C105.51 38.6678 105.708 38.7422 105.905 38.8164L106.064 38.876C107.971 39.5818 110.229 40.0528 112.937 40.0528C114.743 40.0528 118.304 39.9123 120.964 37.7918C123.022 36.2367 123.773 34.1178 123.773 32.2337Z" fill="#A39C91"/>
<path d="M99.1378 27.2511C99.1378 28.8939 97.8013 30.2276 96.1515 30.2276C94.5017 30.2276 93.1651 28.8939 93.1651 27.2511C93.1651 25.6083 94.5017 24.2744 96.1515 24.2744C97.8013 24.2744 99.1378 25.6083 99.1378 27.2511Z" fill="#A39C91"/>
<path fill-rule="evenodd" clip-rule="evenodd" d="M167.911 36.4297L184.286 3.48735C185.539 0.932303 189.271 -0.932113 192.2 0.494324C195.147 1.93385 195.918 5.9284 194.637 8.5414L178.259 41.4822C177.562 42.8952 176.167 44.0785 174.527 44.6355C173.067 45.1364 171.583 45.0784 170.349 44.4735C167.396 43.0389 166.628 39.0444 167.911 36.4297ZM169.896 37.4032C169.113 39.0014 169.617 41.6623 171.321 42.4937C172.025 42.8358 172.908 42.8555 173.81 42.5482C174.892 42.1813 175.837 41.3995 176.272 40.5103L192.649 7.56632C192.891 7.07543 193.01 6.48542 193.01 5.87564C193.01 4.50554 192.407 3.051 191.226 2.47585C189.497 1.63468 187.059 2.86271 186.273 4.46079L169.896 37.4032Z" fill="#A39C91"/>
<path d="M204.968 32.8428C204.968 31.4858 204.437 30.8066 203.093 30.8066H199.473C198.663 30.8066 197.98 31.357 197.98 32.2494C197.98 33.1188 198.599 33.7353 199.473 33.7353H201.646C201.646 36.1566 199.706 37.0903 198.024 37.0903C195.317 37.0903 194.019 34.7963 194.019 32.2065C194.019 29.6364 195.365 27.3244 198.024 27.3244C199.646 27.3244 200.426 27.848 201.079 28.2866C201.55 28.6027 201.955 28.8746 202.561 28.8746C203.307 28.8746 203.88 28.3011 203.88 27.3871C203.88 25.9013 201.24 24.394 198.024 24.394C193.678 24.394 190.698 27.7904 190.698 32.2065C190.698 36.6027 193.699 40.019 198.024 40.019C202.283 40.019 204.968 36.9416 204.968 32.8428Z" fill="#A39C91"/>
<path d="M208.377 24.6479C207.247 24.6479 206.719 25.4345 206.719 26.4957V38.1738C206.719 39.1291 207.42 39.7671 208.354 39.7671H213.851C214.852 39.7671 215.364 39.0233 215.364 38.3011C215.364 37.5573 214.874 36.8368 213.851 36.8368H209.911V33.609H213.405C214.427 33.609 214.959 32.8653 214.959 32.143C214.959 31.401 214.448 30.6787 213.405 30.6787H209.911V27.5782H213.659C214.661 27.5782 215.173 26.8344 215.173 26.1139C215.173 25.3717 214.684 24.6479 213.659 24.6479H208.377Z" fill="#A39C91"/>
<path d="M218.476 24.5208C217.559 24.5208 216.881 25.1143 216.881 26.1769V38.2369C216.881 39.2981 217.559 39.893 218.476 39.893C219.39 39.893 220.073 39.2981 220.073 38.2369V30.3154H220.115L226.87 39.1939C227.167 39.5757 227.806 39.893 228.209 39.893C229.128 39.893 229.805 39.2981 229.805 38.2369V26.1769C229.805 25.1143 229.128 24.5208 228.209 24.5208C227.294 24.5208 226.614 25.1143 226.614 26.1769V34.2027H226.571L219.817 25.2217C219.542 24.8399 218.88 24.5208 218.476 24.5208Z" fill="#A39C91"/>
<path d="M233.684 24.6479C232.557 24.6479 232.026 25.4345 232.026 26.4957V38.1738C232.026 39.1291 232.727 39.7671 233.663 39.7671H239.16C240.162 39.7671 240.673 39.0233 240.673 38.3011C240.673 37.5573 240.184 36.8368 239.16 36.8368H235.22V33.609H238.717C239.736 33.609 240.266 32.8653 240.266 32.143C240.266 31.401 239.757 30.6787 238.717 30.6787H235.22V27.5782H238.968C239.972 27.5782 240.482 26.8344 240.482 26.1139C240.482 25.3718 239.991 24.6479 238.968 24.6479H233.684Z" fill="#A39C91"/>
<path d="M237.861 21.1457L238.032 21.23C238.395 21.4201 238.629 21.7605 238.629 22.0795C238.629 22.8232 238.139 23.6281 237.499 23.6281C237.321 23.6281 237.251 23.6281 237.184 23.6126C237.141 23.6025 237.099 23.5859 237.029 23.5583C236.951 23.5271 236.837 23.4819 236.646 23.4166L234.26 22.4845C233.663 22.2712 233.388 21.8464 233.388 21.23C233.388 20.6581 233.901 19.9144 234.54 19.9144C234.771 19.9144 235.028 19.9987 235.347 20.126L237.861 21.1457Z" fill="#A39C91"/>
<path d="M241.42 26.8342C241.311 26.5599 241.269 26.3467 241.269 26.0492C241.269 25.1584 242.06 24.5204 242.91 24.5204C243.635 24.5204 244.083 24.9881 244.357 25.5616L247.661 34.3938L250.962 25.5616C251.238 24.9881 251.687 24.5204 252.409 24.5204C253.264 24.5204 254.05 25.1584 254.05 26.0492C254.05 26.3467 254.008 26.5599 253.902 26.8342L249.234 38.6629C248.959 39.3421 248.599 39.8925 247.661 39.8925C246.722 39.8925 246.359 39.3421 246.086 38.6629L241.42 26.8342Z" fill="#A39C91"/>
<path d="M255.35 26.4957C255.35 25.4345 255.883 24.6479 257.013 24.6479H262.296C263.318 24.6479 263.809 25.3717 263.809 26.1139C263.809 26.8344 263.297 27.5782 262.296 27.5782H258.546V30.6787H262.041C263.083 30.6787 263.595 31.401 263.595 32.143C263.595 32.8653 263.064 33.609 262.041 33.609H258.546V36.8368H262.488C263.51 36.8368 264 37.5573 264 38.3011C264 39.0233 263.488 39.7671 262.488 39.7671H256.991C256.053 39.7671 255.35 39.1291 255.35 38.1738V26.4957Z" fill="#A39C91"/>
<path fill-rule="evenodd" clip-rule="evenodd" d="M149.762 17.7731C152.07 20.2687 152.721 23.566 152.822 26.8632C152.822 28.4647 152.721 30.0198 152.368 31.433C151.817 33.7402 150.765 35.578 149.11 37.1317C146.902 39.2041 143.943 40.0058 140.429 40.0058C135.914 40.0058 133.053 38.4043 131.449 36.849C128.04 33.5998 127.988 28.7952 127.988 27.2399C127.988 25.4518 128.09 20.834 131.449 17.6789C132.855 16.3138 135.764 14.3818 140.783 14.3818C144.193 14.3818 147.554 15.418 149.762 17.7731ZM146.198 33.3171C147.353 31.1984 147.404 28.0399 147.353 27.0516C147.353 25.8749 147.154 22.7197 145.898 20.6456C144.946 19.1862 143.339 17.9616 140.53 17.9616C139.577 17.9616 136.769 18.0558 135.012 20.6935C133.659 22.6256 133.506 25.3559 133.506 27.3342C133.506 29.2183 133.557 33.9765 137.519 35.8607C138.421 36.2838 139.476 36.4722 140.481 36.4722C142.336 36.4722 144.746 35.9069 146.198 33.3171Z" fill="#A39C91"/>
</svg>
